<svg width="417" height="213" fill="none" xmlns="http://www.w3.org/2000/svg"><path d="M46.7 148.3l-21 46.8H21L0 148.3h4.7l18.7 41.8 18.8-41.8h4.5zM55 133.4c0-2 1.7-3.7 3.7-3.7a3.6 3.6 0 110 7.3c-2 0-3.6-1.6-3.6-3.6zm1.5 15H61V195h-4.5v-46.8zM113.6 165.4v29.7h-4.3v-8.4c-3 5.4-8.7 8.7-16.8 8.7-10.5 0-16.8-5.3-16.8-13.3 0-7 4.4-13 17.4-13h16v-3.8c0-8.7-4.7-13.4-13.8-13.4-6.5 0-12.3 2.4-16.2 6l-2.2-3.3a28.5 28.5 0 0118.7-6.6c11.6 0 18 5.9 18 17.4zm-4.5 15.9v-8.8H93.2c-9.7 0-13 4-13 9.4 0 6.1 4.7 9.9 13 9.9 7.8 0 13.2-3.8 16-10.5zM178.6 171.7c0 14-10 23.7-23 23.7-8.3 0-15.3-4-19-11v28H132v-64h4.3v11a20.9 20.9 0 0119.1-11.4c13.2 0 23.1 9.7 23.1 23.7zm-4.5 0c0-11.7-8.1-19.7-18.9-19.7-10.7 0-18.8 8-18.8 19.7s8 19.7 18.8 19.7 19-8 19-19.7zM234.3 167.8V195h-4.5v-27c0-10.5-5.6-16-15.1-16-11 0-17.7 7-17.7 18v25h-4.5v-66.5h4.5v29.5c3.2-6.4 9.6-10.1 18.3-10.1 11.4 0 19 6.7 19 19.8zM286.5 165.4v29.7h-4.3v-8.4c-3 5.4-8.7 8.7-16.8 8.7-10.5 0-16.9-5.3-16.9-13.3 0-7 4.5-13 17.5-13h16v-3.8c0-8.7-4.7-13.4-13.9-13.4-6.4 0-12.2 2.4-16 6l-2.3-3.3a28.5 28.5 0 0118.7-6.6c11.5 0 18 5.9 18 17.4zm-4.5 15.9v-8.8h-16c-9.6 0-13 4-13 9.4 0 6.1 4.7 9.9 13 9.9 7.9 0 13.3-3.8 16-10.5zM327 148v4.4l-1-.1c-10.4 0-16.6 6.9-16.6 18.4v24.4h-4.5v-46.8h4.3v10.2c2.9-6.8 9-10.5 17.8-10.5zM417 167.8V195h-4.5v-27c0-10.5-5.4-16.1-14.6-16.1-10.5 0-17 7-17 18.2V195h-4.5v-27c0-10.5-5.5-16.1-14.6-16.1-10.6 0-17.1 7-17.1 18.2V195h-4.5v-46.8h4.3v10c3-6.5 9.4-10.3 17.9-10.3 8.4 0 14.6 3.8 17 11.3 3.1-6.9 10-11.3 19-11.3 11.3 0 18.6 6.7 18.6 19.8zM183.7 139C136.3 102.7 110 59.4 86.1 15.4 72.3-3.9 54.1 18.7 47.5 33c-25.4 60.6 68 102.9 136.1 106.2z" fill="#fff"/><path d="M61 14.2c2.3-2.3 10.4-8 18-13.3l9.2 18.3-27.2-5z" fill="#fff"/><path fill-rule="evenodd" clip-rule="evenodd" d="M71 10.8L73 6.6l1.4.6-1.8 4.2-1.4-.6zm-5.2 17.6c.5-3 1.3-6 2.2-9l1.4.5c-.9 3-1.6 5.9-2.1 8.7l-1.5-.2zm-1.2 18.2c-.2-3-.2-6 0-9.1H66c-.2 3-.2 6 0 9l-1.5.1zm4 18c-1-3-2-5.9-2.6-8.8l1.4-.4a60 60 0 002.7 8.6l-1.5.5zm9 16c-1.9-2.6-3.6-5.1-5-7.8l1.3-.7c1.4 2.6 3 5 4.9 7.5l-1.2 1zM89.9 94a101 101 0 01-6.5-6.5l1.2-1c2 2.1 4 4.2 6.4 6.3l-1 1.2zm14.5 11.2L97 99.9l.9-1.2c2.3 1.8 4.7 3.6 7.3 5.3l-.8 1.3zm15.6 9.4l-8-4.5.9-1.3 7.8 4.5-.7 1.3zm16.4 8c-2.9-1.2-5.6-2.5-8.3-3.8l.7-1.4 8.2 3.9-.6 1.3zm16.8 7l-8.4-3.4.5-1.4 8.5 3.4-.6 1.4zm17.2 6l-8.6-2.9.5-1.4 8.6 2.9-.5 1.4zm13.1 4.1l-4.4-1.3.5-1.5 4.3 1.4-.4 1.4z" fill="#fff"/></svg>