<svg width="121" height="62" fill="none" xmlns="http://www.w3.org/2000/svg"><path d="M13.56 42.78L7.43 56.33H6.1L0 42.78h1.38l5.4 12.13 5.45-12.13h1.33zM15.98 38.44c0-.57.46-1.07 1.06-1.07a1.05 1.05 0 110 2.1c-.6 0-1.06-.46-1.06-1.03zm.41 4.34h1.3v13.55h-1.3V42.78zM32.96 47.74v8.6h-1.24v-2.42c-.86 1.56-2.52 2.52-4.88 2.52-3.04 0-4.89-1.56-4.89-3.87 0-2.05 1.3-3.8 5.07-3.8h4.65V47.7c0-2.52-1.38-3.87-4.03-3.87-1.87 0-3.56.7-4.67 1.71l-.65-.93a8.27 8.27 0 015.42-1.93c3.36 0 5.22 1.72 5.22 5.07zm-1.3 4.6v-2.55h-4.62c-2.8 0-3.8 1.17-3.8 2.73 0 1.77 1.39 2.86 3.78 2.86 2.28 0 3.87-1.1 4.65-3.04zM51.82 49.56c0 4.08-2.88 6.88-6.7 6.88a6.07 6.07 0 01-5.5-3.2v8.14h-1.3v-18.6h1.24v3.19a6.06 6.06 0 015.56-3.3c3.82 0 6.7 2.83 6.7 6.89zm-1.3 0c0-3.4-2.36-5.72-5.48-5.72-3.11 0-5.45 2.31-5.45 5.72 0 3.4 2.34 5.71 5.45 5.71 3.12 0 5.49-2.31 5.49-5.71zM67.98 48.41v7.93h-1.3v-7.82c0-3.07-1.63-4.68-4.39-4.68-3.19 0-5.14 2.05-5.14 5.27v7.22h-1.3V37.06h1.3v8.55c.94-1.85 2.8-2.94 5.33-2.94 3.3 0 5.5 1.95 5.5 5.74zM83.13 47.74v8.6h-1.25v-2.42c-.86 1.56-2.52 2.52-4.88 2.52-3.04 0-4.89-1.56-4.89-3.87 0-2.05 1.3-3.8 5.07-3.8h4.65V47.7c0-2.52-1.38-3.87-4.03-3.87-1.87 0-3.56.7-4.67 1.71l-.65-.93a8.27 8.27 0 015.43-1.93c3.35 0 5.22 1.72 5.22 5.07zm-1.3 4.6v-2.55H77.2c-2.8 0-3.79 1.17-3.79 2.73 0 1.77 1.38 2.86 3.77 2.86 2.28 0 3.87-1.1 4.65-3.04zM94.9 42.67v1.28c-.11 0-.21-.03-.32-.03-3.01 0-4.8 2-4.8 5.35v7.06h-1.3V42.78h1.24v2.96c.84-1.98 2.63-3.07 5.17-3.07zM121 48.41v7.93h-1.3v-7.82c0-3.07-1.58-4.68-4.23-4.68-3.07 0-4.96 2.05-4.96 5.27v7.22h-1.3v-7.81c0-3.07-1.59-4.68-4.24-4.68-3.06 0-4.96 2.05-4.96 5.27v7.22h-1.3V42.77h1.25v2.91c.88-1.9 2.73-3.01 5.2-3.01 2.44 0 4.23 1.12 4.96 3.27.88-1.97 2.85-3.27 5.48-3.27 3.27 0 5.4 1.95 5.4 5.74zM53.31 40.1C39.54 29.5 31.91 16.93 24.97 4.17c-3.99-5.56-9.24.98-11.16 5.1-7.36 17.6 19.76 29.85 39.5 30.81z" fill="#10BB69"/><path d="M17.7 3.84c.66-.66 3.03-2.3 5.2-3.84l2.68 5.3-7.89-1.46z" fill="#10BB69"/><path fill-rule="evenodd" clip-rule="evenodd" d="M20.62 2.88c.17-.41.34-.82.53-1.23l.4.18c-.18.41-.36.81-.52 1.21l-.4-.16zm-1.54 5.08c.17-.85.38-1.7.65-2.58l.42.13c-.26.86-.47 1.7-.63 2.54l-.44-.09zm-.33 5.31c-.07-.88-.07-1.77-.01-2.67l.44.03c-.06.88-.06 1.75 0 2.6l-.43.04zm1.17 5.2c-.33-.84-.59-1.7-.78-2.56l.43-.1c.19.85.44 1.68.76 2.5l-.41.15zm2.6 4.64a21.34 21.34 0 01-1.46-2.24l.39-.21c.41.74.88 1.47 1.42 2.19l-.36.26zm3.58 3.92c-.68-.61-1.3-1.24-1.89-1.87l.33-.3c.57.62 1.19 1.24 1.85 1.84l-.3.33zm4.18 3.26a41.35 41.35 0 01-2.14-1.56l.27-.35c.67.52 1.37 1.04 2.12 1.54l-.25.37zm4.54 2.73c-.8-.42-1.56-.86-2.3-1.3l.23-.38c.73.44 1.49.87 2.28 1.3l-.2.38zm4.75 2.33c-.82-.37-1.62-.74-2.4-1.12l.2-.4c.77.38 1.56.75 2.38 1.12l-.18.4zm4.9 2.01c-.85-.31-1.67-.64-2.47-.97l.17-.4 2.45.96-.15.41zm4.98 1.76c-.85-.28-1.69-.56-2.5-.85l.15-.41 2.49.84-.14.42zm3.8 1.19l-1.28-.39.13-.42 1.28.38-.13.43z" fill="#fff"/></svg>