<svg width="931" height="654" fill="none" xmlns="http://www.w3.org/2000/svg"><g filter="url(#filter0_ii)"><path d="M921.97 177H164.55a4.35 4.35 0 100 8.7h757.42a4.35 4.35 0 000-8.7z" fill="#0D5A52"/></g><g filter="url(#filter1_ii)"><path d="M725 662.55V4.66a4.66 4.66 0 00-9.32 0v657.9a4.66 4.66 0 109.33 0z" fill="#0D5A52"/></g><g filter="url(#filter2_ii)"><path d="M354.12 661.12V4.66a4.66 4.66 0 00-9.33 0v656.46a4.66 4.66 0 109.33 0z" fill="#0D5A52"/></g><path d="M388.06 74.33a.89.89 0 00-1.18-.41h-.03a84.35 84.35 0 00-9.65 5.65c-2.94 1.94-5.64 3.92-8.3 5.8-2.6 1.8-5.06 3.79-7.37 5.94-2.29 2.11-4.72 4.27-7.61 5.35a11.96 11.96 0 01-3.3.74c-.37 0-.7.04-1.18.04l-5.4.06-10.75.16-21.5.41-43.09.95a22.14 22.14 0 00-20.8 21.75v14.84l.16 86.01v86l-.12 172.02-.26 86-.14 43.01-.23 58.95h7.56l-.23-58.95-.14-43-.27-86-.11-172.02v-86l.13-86.02V120.9a15.35 15.35 0 011.1-5.41c1.1-2.8 3-5.22 5.44-6.97a15.35 15.35 0 018.26-2.87l42.83-.4 21.48-.14 10.72-.03h6.85l1.55-.05c1.04-.04 2.08-.12 3.13-.21 4.18-.3 8.3-1.16 12.26-2.56 3.8-1.44 7.2-3.73 9.96-6.7 2.72-2.8 5.02-6 6.82-9.46a36 36 0 002.27-5.4 24.83 24.83 0 001.24-5.93c0-.15-.03-.3-.1-.43z" fill="#06233F"/><path d="M308.88 101.15a39.62 39.62 0 012.82-5.97 68.34 68.34 0 013.17-5.06c1.08-1.58 2.2-3.05 3.22-4.45.48-.7 1.03-1.36 1.46-2 .22-.3.44-.6.64-.92.2-.3.38-.52.65-.95a52.85 52.85 0 017.2-8.62 41 41 0 017.42-5.64c1.02-.6 2.08-1.14 3.17-1.6.23 1.18.36 2.37.37 3.56v1.68c0 .6-.06 1.1-.12 1.65-.2 2.1-.62 4.18-1.24 6.2a34.51 34.51 0 01-5.65 10.89l-1.1 1.36a26.55 26.55 0 01-3.8 3.54 31.24 31.24 0 01-5.5 3.35 31.7 31.7 0 01-6 2.2c-2.19.57-4.45.83-6.71.78zM290.62 103.28c3.33-.93 6.38-.55 9.23.24 2.78.84 5.38 2.23 7.62 4.1a21.6 21.6 0 015.49 6.68 18.5 18.5 0 011.6 4.22 15.17 15.17 0 01.39 4.83 36.8 36.8 0 01-8.08-3.33 42 42 0 01-11.44-9.44 34.9 34.9 0 01-4.81-7.3z" fill="#06233F"/><path d="M617.38 505.12c4.23 8 2.11 11.13 1.27 19.82-.85 8.7 5.48 10.43 8.46 17.74 2.97 7.3.85 10.78 1.7 19.82.84 9.04 4.22 9.73 7.18 18.08 2.97 8.34 0 19.82-2.11 35.47-1.31 9.68 1.75 27.61 4.28 39.88H677c-2.98-23.2-7.2-60.5-4.62-68.74 3.8-12.17-2.12-32.34-5.93-38.6-3.8-6.26-4.65-13.91-3.8-19.47.84-5.57-2.97-7.65-7.62-11.83-4.65-4.17-4.65-13.21-6.77-20.86-2.12-7.65-12.07-10.69-12.69-17.39-1.04-11.68-14.71-22.3-22.26-22.3-6.21 5.67.9 21.08 2.17 27.34 1.27 6.26-2.34 13.05 1.9 21.04z" fill="#3A7F64"/><path style="mix-blend-mode:multiply" opacity=".26" d="M617.38 505.12c4.23 8 2.11 11.13 1.27 19.82-.85 8.7 5.48 10.43 8.46 17.74 2.97 7.3.85 10.78 1.7 19.82.84 9.04 4.22 9.73 7.18 18.08 2.97 8.34 0 19.82-2.11 35.47-1.31 9.68 1.75 27.61 4.28 39.88h24.75c-1.64-13.23-3-27.67-2.4-34.93 1.27-15.37 5.72-22.95.96-33.12-4.77-10.17-12.7-9.39-10.47-23.2 2.22-13.83 1.9-22.96-9.53-32.87-11.42-9.9-3.8-19.82-4.43-27.9-.63-8.1-9.21-9.89-10.8-18-1.58-8.1-.68-18.08-12.94-29.18-6.22 5.68.89 21.1 2.16 27.35 1.27 6.26-2.32 13.05 1.92 21.04z" fill="url(#paint0_linear)"/><path d="M664.5 655.9c-4.7-19.14-4.1-50.99-1.6-59.64 3.12-10.83 0-29.71-1.6-38.6-1.6-8.9 1.83-16.7 2.98-22.34 1.16-5.63-4.47-9.12-5.76-16.06-1.3-6.94 4.89-11.7 6.13-17.78 1.24-6.07 2.14-19.3 3.95-19.3 0 0 6.4 5.22 9.46 11.3 3.06 6.08 0 15.62 4.39 19.53 4.39 3.9 6.64 7.39 6.08 15.63-.55 8.24 1.9 8.46 4.28 17.79 2.39 9.33-5.05 16.9-4.86 27.1.18 10.2 5.33 9.34 9.83 27.13 3.2 12.63-4.2 40.26-8.78 55.28l-24.5-.04z" fill="#0D5A52"/><path style="mix-blend-mode:multiply" opacity=".26" d="M664.5 655.9c-4.7-19.14-4.1-50.99-1.6-59.64 3.12-10.83 0-29.71-1.6-38.6-1.6-8.9 1.83-16.7 2.98-22.34 1.16-5.63-4.47-9.12-5.76-16.06-1.3-6.94 4.89-11.7 6.13-17.78 1.24-6.07 2.14-19.3 3.95-19.3-.19 10.85 6.25 11.51 4.79 19.77-1.47 8.27-6.8 12.14-.43 18.67 6.37 6.54 4.11 8.69 3.62 21.05-.5 12.36 8.99 14.01 4.81 25.57-4.86 13.45-5.57 26.04-.55 35.33 6.1 11.3-.87 30.63.88 43.75a31.38 31.38 0 00-.95 9.64l-16.26-.06z" fill="url(#paint1_linear)"/><path d="M574.74 492.45c3.1-.44 10.06 6.4 13.16 10.83 3.1 4.42 11.42 5.08 14.9 11.93 3.49 6.85.97 12.81 10.07 18.34 9.1 5.52 14.42 12.08 21.49 24.74 5.42 9.73 12.2 28.28 13.16 39.11.98 10.83 6.2 21.41 12.59 32.48 3.53 6.11 4.87 17.29 5.37 26.06h-15.19c-3.83-5.8-10.25-12.2-11.66-17.66-1.94-7.51-.78-19.66-5.03-26.95-4.26-7.3-16.46-18.79-16.85-26.52-.38-7.74-7.93-16.57-13.94-20.77-6-4.2-6.58-17.23-10.06-23.42-3.48-6.19-11.03-8.84-11.42-15.92-.38-7.09-1.35-12.6-4.84-16.35-3.48-3.76-4.85-15.46-1.75-15.9z" fill="#9ABD3D"/><path style="mix-blend-mode:multiply" opacity=".26" d="M573.9 492.95l.84-.5c3.48 9.72 9.29 12.37 11.8 19.44 2.53 7.07 7.94 6.19 11.81 16.8 3.88 10.6 19.2 14.53 22.07 29.82 3.37 17.98 21.02 15.68 20.37 49.42-.29 14.71 10.19 16.08 15.3 28.9 3.49 8.8 2.4 19.12 2.4 19.12h-8.23c-3.84-5.8-10.26-12.19-11.67-17.65-1.94-7.51-.77-19.66-5.03-26.95-4.26-7.3-16.46-18.79-16.84-26.52-.39-7.74-7.94-16.57-13.94-20.77-6-4.2-6.59-17.23-10.07-23.42-3.47-6.19-11.03-8.84-11.42-15.92-.38-7.08-1.35-12.6-4.84-16.35-3.09-3.37-4.5-13.1-2.54-15.42z" fill="url(#paint2_linear)"/><path d="M589.24 655.94c-4.06-7.98-6.87-17.14-6.87-22.74 0-9.29-.72-21.66-4.3-26.3-3.6-4.63-4.8-10.16-3.85-14.14.94-3.98-.96-9.5-2.15-14.58-1.2-5.08.24-8.4.24-8.4 1.67 3.3 3.1 3.54 6.45 7.73 3.35 4.2 1.92 6.2 6.7 12.82 4.79 6.63 9.1 13.48 10.76 21.65 1.68 8.18 8.38 16.8 14.12 24.53 4.04 5.44 6.63 12.21 8.16 19.43h-29.26z" fill="#3A7F64"/><path style="mix-blend-mode:multiply" opacity=".14" d="M589.24 655.94c-4.06-7.98-6.87-17.14-6.87-22.74 0-9.29-.72-21.66-4.3-26.3-3.6-4.63-4.8-10.16-3.85-14.14.94-3.98-.96-9.5-2.15-14.58-1.2-5.08.24-8.4.24-8.4 1.35 10.99 5.82 9.95 6.61 16.43.8 6.47.8 10.9 4.3 15.31 3.51 4.42 3.2 10.17 7.99 20.77 4.78 10.6 13.55 20.48 15.14 27.7.32 1.45.7 3.54 1.1 5.95h-18.21z" fill="url(#paint3_linear)"/><path d="M705.58 655.94c4-11.32 6.77-24.29 6.77-32.25 0-13.17.71-30.7 4.25-37.27 3.54-6.58 4.72-14.41 3.77-20.05-.94-5.64.95-13.47 2.13-20.68 1.18-7.2-.24-11.9-.24-11.9-1.64 4.7-3.07 5.01-6.37 10.98-3.3 5.97-1.89 8.78-6.58 18.17-4.7 9.38-8.97 19.11-10.62 30.7-1.65 11.59-8.23 23.8-13.91 34.77-3.98 7.69-6.54 17.3-8.05 27.55l28.85-.02z" fill="#133732"/><path style="mix-blend-mode:multiply" opacity=".14" d="M705.58 655.94c4-11.32 6.77-24.29 6.77-32.25 0-13.17.71-30.7 4.25-37.27 3.54-6.58 4.72-14.41 3.77-20.05-.94-5.64.95-13.47 2.13-20.68 1.18-7.2-.24-11.9-.24-11.9-1.34 15.56-5.74 14.1-6.53 23.28-.79 9.19-.78 15.46-4.24 21.72-3.47 6.27-3.15 14.42-7.87 29.45-4.71 15.03-13.36 29.03-14.93 39.26a239.7 239.7 0 00-1.07 8.44h17.96z" fill="url(#paint4_linear)"/><path d="M591.34 576.41c1.71 3.98 7.28 6.63 15.62 10.39 8.34 3.75 12.38 6.31 19.9 18.56 4.06 6.62 8.97 17.23 12.4 32.48 1.4 6.14 3.17 12.2 5.3 18.12h-16.2v-1.32c0-10.6-14.34-22.5-17.76-31.84-3.42-9.33-9.63-19.22-14.34-23.2-4.7-3.98-10.9-14.58-11.52-20.77-.4-3.77-1.49-7.44-3.2-10.83 3.39 1.12 8.1 4.44 9.8 8.41z" fill="#80BC47"/><path style="mix-blend-mode:multiply" opacity=".26" d="M591.34 585.69c3.43 6.63 8.99 3.54 18.83 12.82 9.84 9.28 5.13 10.16 13.9 24.08 8.77 13.92 10.27 19.44 11.76 30.05.15.98.36 2.1.62 3.3h-8.1v-1.32c0-10.6-14.33-22.5-17.75-31.84s-9.63-19.22-14.34-23.2c-4.7-3.98-10.9-14.58-11.52-20.77-.4-3.77-1.49-7.44-3.2-10.83 7.03 8.43 6.38 11.08 9.8 17.71z" fill="url(#paint5_linear)"/><path d="M79.66 392.02c7.36 13.92 3.68 19.37 2.2 34.5-1.5 15.12 9.58 18.14 14.73 30.84 5.16 12.7 1.47 18.76 2.95 34.5 1.48 15.73 7.36 16.94 12.52 31.47 5.16 14.53 0 34.5-3.68 61.73-2.28 16.85 3.05 48.07 7.45 69.42h67.6c-5.2-40.37-12.54-105.3-8.05-119.65 6.63-21.19-3.68-56.3-10.3-67.19-6.63-10.89-8.1-24.2-6.63-33.9 1.48-9.7-5.16-13.3-13.25-20.57-8.1-7.27-8.1-23-11.79-36.31-3.68-13.32-21.05-18.6-22.1-30.26-1.79-20.32-25.6-38.83-38.73-38.83-10.81 9.89 1.56 36.7 3.77 47.6 2.2 10.9-4.05 22.71 3.3 36.65z" fill="#538F5D"/><path style="mix-blend-mode:multiply" opacity=".26" d="M79.66 392.02c7.36 13.92 3.68 19.37 2.2 34.5-1.5 15.12 9.58 18.14 14.73 30.84 5.16 12.7 1.48 18.76 2.95 34.5 1.48 15.73 7.36 16.94 12.52 31.47 5.16 14.53 0 34.5-3.68 61.73-2.28 16.85 3.05 48.07 7.45 69.42h43.11c-2.82-23.06-5.21-48.17-4.17-60.8 2.2-26.78 9.94-39.94 1.64-57.65-8.3-17.7-22.09-16.34-18.22-40.4 3.87-24.05 3.3-39.94-16.57-57.19-19.86-17.24-6.63-34.5-7.73-48.57-1.11-14.07-16.02-17.25-18.78-31.3-2.76-14.05-1.2-31.47-22.54-50.77-10.81 9.88 1.55 36.7 3.77 47.6 2.2 10.89-4.04 22.68 3.32 36.62z" fill="url(#paint6_linear)"/><path d="M161.7 654.42c-8.23-33.31-7.13-88.74-2.8-103.77 5.44-18.87-.05-51.72-2.79-67.2-2.74-15.49 3.2-29.06 5.2-38.88 2.01-9.8-7.78-15.86-10.04-27.95-2.25-12.08 8.51-20.37 10.67-30.94 2.16-10.56 3.73-33.59 6.88-33.58 0 0 11.15 9.07 16.46 19.65 5.32 10.58-.05 27.19 7.62 34 7.67 6.8 11.56 12.85 10.59 27.19-.97 14.34 3.3 14.73 7.45 30.97 4.16 16.24-8.78 29.43-8.48 47.17.3 17.75 9.29 16.25 17.13 47.22 5.56 21.97-7.3 70.08-15.27 96.21l-42.62-.09z" fill="#27774E"/><path style="mix-blend-mode:multiply" opacity=".26" d="M161.7 654.42c-8.23-33.31-7.13-88.74-2.8-103.77 5.44-18.87-.05-51.72-2.79-67.2-2.74-15.49 3.2-29.06 5.2-38.88 2.01-9.8-7.78-15.86-10.04-27.95-2.25-12.08 8.51-20.37 10.67-30.94 2.16-10.56 3.73-33.59 6.88-33.58-.31 18.87 10.88 20.02 8.34 34.36-2.54 14.34-11.83 21.1-.74 32.46 11.08 11.36 7.13 15.12 6.29 36.63-.84 21.51 15.64 24.4 8.38 44.52-8.47 23.4-9.7 45.32-.98 61.49 10.6 19.67-1.53 53.32 1.52 76.14-1.64 6.75-1.99 12.29-1.64 16.8l-28.29-.08z" fill="url(#paint7_linear)"/><path d="M5.46 369.94c5.38-.77 17.51 11.15 22.9 18.84 5.4 7.7 19.88 8.85 25.95 20.77 6.07 11.93 1.68 22.3 17.52 31.92 15.83 9.61 25.1 21 37.4 43.07 9.43 16.92 21.22 49.22 22.9 68.08 1.69 18.86 10.78 37.3 21.9 56.55 6.15 10.64 8.48 30.09 9.33 45.35h-26.42c-6.7-10.1-17.85-21.23-20.3-30.74-3.37-13.08-1.34-34.23-8.78-46.92-7.43-12.7-28.63-32.68-29.3-46.12-.67-13.43-13.8-28.91-24.25-36.2-10.45-7.3-11.46-30-17.52-40.76-6.07-10.77-19.2-15.38-19.88-27.7-.67-12.32-2.36-21.92-8.43-28.45-6.06-6.54-8.42-26.93-3.02-27.7z" fill="#0D5A52"/><path style="mix-blend-mode:multiply" opacity=".26" d="M4 370.8l1.46-.86c6.06 16.92 16.17 21.53 20.53 33.84 4.36 12.3 13.81 10.77 20.55 29.23 6.74 18.45 33.42 25.3 38.4 51.91 5.87 31.3 36.59 27.27 35.45 85.96-.5 25.62 17.73 28 26.63 50.33 6.07 15.28 4.18 33.26 4.18 33.26h-14.27c-6.7-10.1-17.85-21.21-20.3-30.75-3.36-13.07-1.34-34.22-8.77-46.91-7.44-12.7-28.64-32.69-29.3-46.12-.68-13.44-13.8-28.86-24.25-36.15-10.45-7.3-11.46-30-17.52-40.76-6.07-10.77-19.2-15.38-19.88-27.7-.67-12.32-2.36-21.92-8.43-28.45-5.42-5.85-7.87-22.77-4.47-26.83z" fill="url(#paint8_linear)"/><path d="M30.7 654.5c-7.08-13.9-11.96-29.83-11.96-39.6 0-16.14-1.25-37.68-7.5-45.76-6.24-8.07-8.32-17.69-6.66-24.6 1.67-6.92-1.64-16.54-3.74-25.39-2.1-8.84.41-14.61.41-14.61 2.92 5.77 5.41 6.15 11.24 13.46 5.84 7.3 3.33 10.76 11.66 22.3 8.32 11.54 15.82 23.46 18.73 37.69 2.91 14.22 14.58 29.23 24.57 42.68 7.03 9.48 11.52 21.25 14.2 33.82H30.7z" fill="#80BC47"/><path style="mix-blend-mode:multiply" opacity=".14" d="M30.7 654.5c-7.08-13.9-11.96-29.83-11.96-39.6 0-16.14-1.25-37.68-7.5-45.76-6.24-8.07-8.32-17.69-6.66-24.6 1.67-6.92-1.64-16.54-3.74-25.39-2.1-8.84.41-14.61.41-14.61 2.36 19.1 10.13 17.3 11.52 28.58 1.4 11.29 1.4 18.97 7.5 26.67 6.1 7.69 5.55 17.69 13.88 36.14 8.33 18.46 23.59 35.64 26.36 48.2.55 2.53 1.21 6.17 1.9 10.36H30.68z" fill="url(#paint9_linear)"/><path d="M233.19 654.5c6.97-19.7 11.78-42.29 11.78-56.13 0-22.9 1.23-53.43 7.4-64.88 6.15-11.46 8.22-25.08 6.58-34.9-1.65-9.8 1.64-23.44 3.7-35.98 2.05-12.54-.42-20.72-.42-20.72-2.87 8.18-5.34 8.72-11.08 19.08-5.75 10.36-3.3 15.27-11.5 31.63-8.2 16.35-15.62 33.25-18.49 53.43-2.86 20.17-14.36 41.43-24.22 60.52-6.93 13.43-11.38 30.12-14 47.94h50.25z" fill="#0D5A52"/><path style="mix-blend-mode:multiply" opacity=".14" d="M233.19 654.5c6.97-19.7 11.78-42.29 11.78-56.13 0-22.9 1.23-53.43 7.4-64.88 6.15-11.46 8.22-25.08 6.58-34.9-1.65-9.8 1.64-23.44 3.7-35.98 2.05-12.54-.42-20.72-.42-20.72-2.32 27.08-9.99 24.54-11.36 40.53-1.37 16-1.36 26.9-7.38 37.8-6.02 10.9-5.49 25.08-13.69 51.25-8.2 26.18-23.26 50.52-26 68.34-.55 3.58-1.19 8.74-1.86 14.68h31.25z" fill="url(#paint10_linear)"/><path d="M34.36 516.1c2.98 6.92 12.66 11.53 27.18 18.08 14.52 6.54 21.55 10.98 34.62 32.3 7.07 11.53 15.64 30 21.6 56.55a269.86 269.86 0 009.22 31.51H98.77v-2.28c0-18.46-24.95-39.23-30.9-55.38-5.96-16.14-16.75-33.45-24.94-40.38-8.2-6.92-19-25.38-20.11-36.15a54.65 54.65 0 00-5.6-18.89c5.97 1.92 14.16 7.7 17.14 14.64z" fill="#27774E"/><path style="mix-blend-mode:multiply" opacity=".26" d="M34.36 532.22c5.96 11.53 15.64 6.16 32.76 22.31 17.13 16.15 8.94 17.7 24.2 41.92 15.27 24.22 17.87 33.84 20.48 52.3.24 1.7.61 3.65 1.1 5.74H98.76v-2.28c0-18.46-24.95-39.23-30.9-55.38-5.96-16.14-16.75-33.45-24.94-40.38-8.2-6.92-19-25.38-20.11-36.15a54.65 54.65 0 00-5.6-18.84c12.3 14.64 11.18 19.23 17.14 30.76z" fill="url(#paint11_linear)"/><path d="M890.03 426.4c-6.4 12.08-3.2 16.83-1.92 29.98 1.28 13.14-8.31 15.78-12.8 26.82-4.47 11.04-1.27 16.3-2.55 29.98-1.28 13.67-6.4 14.72-10.88 27.35-4.48 12.62 0 29.97 3.2 53.64 1.98 14.65-2.65 41.76-6.48 60.32h-58.73c4.52-35.08 10.9-91.5 7-103.97-5.76-18.4 3.2-48.91 8.96-58.38 5.76-9.46 7.04-21.04 5.75-29.45-1.28-8.4 4.49-11.57 11.52-17.88 7.04-6.3 7.04-19.99 10.24-31.55 3.2-11.57 18.3-16.17 19.2-26.3 1.57-17.67 22.25-33.74 33.66-33.74 9.4 8.6-1.35 31.9-3.29 41.36-1.94 9.47 3.54 19.73-2.88 31.82z" fill="#0D5A52"/><path style="mix-blend-mode:multiply" opacity=".26" d="M890.03 426.4c-6.4 12.08-3.2 16.83-1.92 29.98 1.28 13.14-8.31 15.78-12.8 26.82-4.47 11.04-1.27 16.3-2.55 29.98-1.28 13.67-6.4 14.72-10.88 27.35-4.48 12.62 0 29.97 3.2 53.64 1.98 14.65-2.65 41.76-6.48 60.32h-37.46c2.45-20.02 4.53-41.86 3.63-52.83-1.92-23.27-8.64-34.7-1.44-50.09 7.2-15.38 19.2-14.2 15.84-35.1-3.37-20.9-2.88-34.72 14.4-49.7 17.27-15 5.75-29.98 6.71-42.2.96-12.24 13.92-15 16.32-27.22 2.4-12.23 1.03-27.35 19.58-44.13 9.4 8.6-1.35 31.9-3.29 41.36-1.94 9.47 3.56 19.73-2.86 31.82z" fill="url(#paint12_linear)"/><path d="M818.76 654.43c7.13-28.95 6.2-77.1 2.43-90.2-4.72-16.39.04-44.93 2.42-58.39 2.38-13.45-2.74-25.25-4.52-33.78-1.77-8.52 6.77-13.79 8.73-24.29 1.97-10.5-7.4-17.7-9.28-26.9-1.88-9.2-3.23-29.2-5.97-29.19 0 0-9.68 7.9-14.3 17.08-4.63 9.2.04 23.61-6.63 29.54-6.66 5.93-10.04 11.17-9.2 23.61.84 12.44-2.86 12.8-6.47 26.9-3.62 14.11 7.63 25.65 7.37 41.05-.27 15.4-8.07 14.12-14.89 41.03-4.83 19.08 6.35 60.9 13.27 83.6l37.04-.06z" fill="#538F5D"/><path style="mix-blend-mode:multiply" opacity=".26" d="M818.76 654.43c7.13-28.95 6.2-77.1 2.44-90.2-4.73-16.39.03-44.93 2.41-58.39 2.38-13.45-2.74-25.25-4.52-33.78-1.77-8.52 6.77-13.79 8.73-24.29 1.97-10.5-7.4-17.7-9.28-26.9-1.88-9.2-3.23-29.2-5.97-29.19.28 16.4-9.45 17.4-7.24 29.87 2.21 12.45 10.27 18.35.64 28.2-9.63 9.86-6.2 13.14-5.49 31.85.73 18.71-13.6 21.2-7.27 38.68 7.35 20.32 8.42 39.39.84 53.44-9.22 17.09 1.33 46.32-1.32 66.15 1.4 5.87 1.73 10.68 1.43 14.6l24.6-.04z" fill="url(#paint13_linear)"/><path d="M954.53 407.23c-4.68-.67-15.22 9.69-19.9 16.37-4.7 6.68-17.28 7.69-22.55 18.05s-1.46 19.38-15.22 27.74c-13.76 8.35-21.81 18.25-32.5 37.42-8.2 14.7-18.45 42.78-19.91 59.15-1.47 16.37-9.37 32.4-19.03 49.12-5.34 9.24-7.37 26.15-8.12 39.41h22.98c5.82-8.78 15.5-18.45 17.64-26.71 2.93-11.36 1.17-29.74 7.61-40.77 6.44-11.02 24.89-28.4 25.47-40.08.58-11.67 12-25.06 21.08-31.4 9.08-6.35 9.95-26.07 15.22-35.43 5.28-9.36 16.7-13.37 17.27-24.06.59-10.7 2.06-19.05 7.32-24.7 5.27-5.67 7.33-23.44 2.64-24.11z" fill="#06233F"/><path style="mix-blend-mode:multiply" opacity=".26" d="M955.79 407.98l-1.26-.75c-5.25 14.7-14.03 18.71-17.87 29.4-3.84 10.7-12 9.34-17.86 25.4-5.86 16.07-29.03 21.97-33.37 45.11-5.1 27.19-31.82 23.7-30.8 74.7.42 22.26-15.41 24.32-23.14 43.73-5.28 13.28-3.63 28.9-3.63 28.9h12.4c5.82-8.79 15.52-18.43 17.65-26.69 2.93-11.36 1.17-29.74 7.61-40.77 6.44-11.02 24.89-28.4 25.47-40.08.58-11.67 12-25.06 21.08-31.4 9.08-6.35 9.95-26.07 15.22-35.43 5.28-9.36 16.7-13.37 17.27-24.06.59-10.7 2.06-19.05 7.32-24.7 4.73-5.13 6.87-19.83 3.9-23.36z" fill="url(#paint14_linear)"/><path d="M932.6 654.5c6.14-12.09 10.39-25.92 10.39-34.4 0-14.04 1.1-32.75 6.51-39.77 5.41-7.02 7.24-15.37 5.79-21.41-1.45-6.04 1.45-14.37 3.25-22.06 1.8-7.68-.36-12.7-.36-12.7-2.53 5.02-4.7 5.35-9.77 11.7-5.06 6.36-2.9 9.34-10.12 19.38-7.23 10.05-13.75 20.39-16.28 32.75-2.54 12.37-12.67 25.4-21.35 37.1-6.1 8.23-10.03 18.46-12.34 29.38l44.28.02z" fill="#0D5A52"/><path style="mix-blend-mode:multiply" opacity=".14" d="M932.6 654.5c6.14-12.09 10.39-25.92 10.39-34.4 0-14.04 1.1-32.75 6.51-39.77 5.41-7.02 7.24-15.37 5.79-21.41-1.45-6.04 1.45-14.37 3.25-22.06 1.8-7.68-.36-12.7-.36-12.7-2.05 16.6-8.78 15.04-10 24.85-1.24 9.8-1.21 16.47-6.52 23.16-5.3 6.7-4.82 15.38-12.07 31.42s-20.5 30.96-22.9 41.88a180.3 180.3 0 00-1.65 9l27.56.02z" fill="url(#paint15_linear)"/><path d="M756.64 654.5c-6.03-17.12-10.24-36.75-10.24-48.78 0-19.9-1.1-46.42-6.42-56.37-5.32-9.95-7.13-21.8-5.71-30.33 1.42-8.52-1.43-20.37-3.21-31.3-1.78-10.92.36-18 .36-18 2.5 7.11 4.64 7.59 9.63 16.59 5 9 2.85 13.26 9.99 27.48 7.14 14.21 13.55 28.9 16.05 46.42 2.5 17.53 12.48 36.01 21.05 52.6 6.03 11.66 9.87 26.17 12.17 41.65l-43.67.03z" fill="#06233F"/><path style="mix-blend-mode:multiply" opacity=".14" d="M756.64 654.5c-6.03-17.12-10.24-36.75-10.24-48.78 0-19.9-1.1-46.42-6.42-56.37-5.32-9.95-7.13-21.8-5.71-30.33 1.42-8.52-1.43-20.37-3.21-31.3-1.78-10.92.36-18 .36-18 2.02 23.54 8.68 21.32 9.87 35.22 1.2 13.9 1.2 23.37 6.43 32.85 5.23 9.48 4.75 21.8 11.88 44.53 7.13 22.75 20.22 43.93 22.6 59.38.47 3.12 1.03 7.6 1.61 12.76l-27.17.03z" fill="url(#paint16_linear)"/><path d="M929.41 534.22c-2.58 6.04-11 10.03-23.59 15.71-12.59 5.68-18.73 9.55-30.09 28.07-6.14 10.02-13.58 26.07-18.76 49.12a235.25 235.25 0 01-8.02 27.38h24.52v-1.98c0-16.04 21.68-34.09 26.85-48.12 5.17-14.03 14.56-29.1 21.67-35.09 7.12-5.99 16.5-22.05 17.47-31.4a47.4 47.4 0 014.86-16.38c-5.2 1.66-12.32 6.65-14.9 12.7z" fill="#83A974"/><path style="mix-blend-mode:multiply" opacity=".26" d="M929.41 548.25c-5.17 10.03-13.58 5.35-28.47 19.38-14.88 14.03-7.76 15.38-21.02 36.42-13.27 21.06-15.53 29.41-17.8 45.45-.2 1.49-.54 3.17-.93 5h12.26v-2c0-16.03 21.67-34.08 26.85-48.11 5.17-14.03 14.56-29.1 21.67-35.09 7.12-5.99 16.5-22.05 17.47-31.41a47.4 47.4 0 014.85-16.37c-10.67 12.7-9.7 16.7-14.88 26.73z" fill="url(#paint17_linear)"/><path d="M325.36 300.9c-30.61 23.93-104.65 54.85-131.47 99.2-26.82 44.34-52.47 153.45-57.13 191.38 0 0 12.43 4.86 39.25 1.94 26.81-2.92 69.77-16.53 69.77-16.53l-23.9 77.6h226.78l6.42-74.12s18.26 1.82 34.25-5.36c21.02-9.44 35.2-29.24 35.2-29.24s-44.39-122.94-69.45-148.03c-26.24-26.25-59.47-51.35-59.47-51.35l-70.25-45.49z" fill="#FDC206"/><path d="M582.2 451.93c-5.35 16.24-10.53 58.4-15.19 83.14-7.77 41.23-29.92 117.5-59.85 118.26-29.93.75-37.7-36.95-23.72-81.69 11.73-37.48 51.64-108.58 63.92-136 7.8 7.51 19.8 15.17 34.83 16.29z" fill="#494C7E"/><path d="M474.74 501.38a3.47 3.47 0 01-.4-4.87L614.62 330.7a3.44 3.44 0 015.71.65 3.45 3.45 0 01-.43 3.81L479.6 500.99a3.44 3.44 0 01-4.87.4z" fill="#E72552"/><path d="M588.39 372.38l31.49-37.22a3.46 3.46 0 00-5.28-4.47l-32.26 38.13 6.05 3.56z" fill="#6E87CC"/><path d="M631.43 363.62c-2.04 7.01-1.45 12.26-10.2 22.47-8.74 10.21-25.84 38.12-30.5 44.74-1.87 2.64-4.98 10.26-8.54 21.1-15.03-1.1-27.02-8.79-34.83-16.29 2.38-5.31 3.73-8.98 3.62-10.46-1.1-15.45 15.74-35.59 15.74-35.59-5.54-8.46-4.08-14.27-2.62-16.62 1.46-2.35 5.24-3.5 5.83-6.72.59-3.21-1.75-7 2.62-9.92 3.38-2.25 7.31-2.38 9.92-7.58 3.5-7 8.74-1.17 10.5-3.8 1.75-2.63 2.03-3.5 5.82-3.5 3.78 0 10.5 6.43 13.71 10.5 3.22 4.09 7 8.18 7 8.18s3.2-11.68 2.62-16.05c-.59-4.38-4.94-9.04-5.54-16.05-.6-7 5.25-8.46 5.25-8.46s2.33 4.4 4.07 7.88c1.75 3.49 5.25 10.8 6.13 15.17.88 4.38 1.45 14-.6 21z" fill="#8B9FD6"/><path style="mix-blend-mode:multiply" opacity=".5" d="M349.36 595.75c1.16-24.5-5.44-126.02-44.3-144.3-38.88-18.3-71.91 1.94-71.91 1.94s10.5 38.9 12.43 56.4c1.93 17.35-.35 45.41-6.07 69.01 3.93-1.17 6.27-1.91 6.27-1.91l-23.9 77.6H348.2c.04-10.7.23-39.18 1.16-58.74z" fill="url(#paint18_linear)"/><path d="M404.94 162.62c-5.83-9.63-23.32-19.84-38.77-16.05-13.1 3.22-30.9 15.17-34.4 35.6-3.5 20.41-7.87 9.33-20.99 21.88-7.61 7.28-11.07 33.25 17.2 41.42 28.28 8.17 32.07-29.75 32.07-29.75l44.89-53.1z" fill="#06233F"/><path d="M490.06 220.67c4.26 14.53-1.46 45.52-16.04 75.86-11.56 24.08-28.27 48.43-46.63 52.8-13.29 3.17-25.94-5.54-25.94-5.54s-9.91 10.8-9.91 18.38c0 7.58-2.92 46.97-6.42 47.55-3.5.58-33.8-24.8-47.8-53.97-14-29.18-11.95-54.85-11.95-54.85s16.32-17.5 24.49-27.42c8.16-9.92 4.08-31.51 41.39-54.26 37.3-22.75 54.51-22.76 73.16-21 18.66 1.74 22.73 12.54 25.64 22.45z" fill="#F27852"/><path d="M365.57 268.81c-9.03 2.92-16.6 6.13-16.6 6.13s-12.55-8.17-13.72-35.01c-1.18-26.84 25.7-58.47 44.6-69.73 27.43-16.34 52.22-12.36 72.87-4.67 25.07 9.34 48.69 43.47 38.48 62.14 0 0-11.07-8.46-31.77-6.12-18.81 2.11-33.82 20.12-54.22 25.08-20.4 4.96-30.6-12.83-30.6-12.83l-10.21 15.17 1.17 19.84z" fill="#06233F"/><path d="M396.7 232.4c-8.15-12.24-22.95-17.72-34.52-7.35-11.58 10.36-17.24 26.18-8.23 38.89 9 12.7 17.05 11.53 17.05 11.53l25.7-43.08z" fill="#F76060"/><path d="M378.45 263l11.73-19.66c-.66-1.83-3.67-9.07-10.56-11.53-7.9-2.86-16.3 6.1-16.79 14.16-.52 7.92 5.59 13.9 15.62 17.02z" fill="#F64848"/><path opacity=".55" d="M426.36 299.31a16.67 16.67 0 10-19.52 13.22 16.67 16.67 0 0019.52-13.22z" fill="#F64848"/><path opacity=".57" d="M397.8 233.51c2.33 10.11-5.4 37.93 4.22 48.72 7.78 8.73 21.14 14.44 37.17 16.63 18.34 2.5 29.02 1.43 33.81.44 4.94-1.02 16.32-30.2 16.32-30.2l-39.88-2.04s-20.8-5.64-29.73-13.03c-8.94-7.4-21.91-20.52-21.91-20.52z" fill="#fff"/><path d="M492.2 258.7l-3.5-5.06s-.52 2.91-1.22 5.5c-7.5.4-15 .37-22.5-.08-19.24-.98-29.54-2.74-36.92-6.42-7.39-3.67-23.32-21-29.74-27.81-6.4-6.8-17.49-4.67-17.49-4.67s9.33 2.34 13.41 8.36c8.1 11.97 17.04 29.32 29.15 35.01 19.44 9.14 60.64 6.8 65.69 6.62 0 .03 4.28-5.81 3.11-11.45z" fill="#10BB69"/><path opacity=".84" d="M361.5 147.14c29.89-13.82 82.8-6.12 111.07 15.47 27.07 20.67 30.2 41.48 29.15 51.63-1.46 14.01-9.92 17.8-9.92 17.8s-10.78-10.77-37.9-8.16c-29.08 2.82-46.63 9.99-65.59 20.42-17.49 9.63-25.07 18.97-32.91 25.97-7.85 7-9.92 7.88-9.92 7.88s-32.47 9.04-41.98-19.84c-8.15-24.8 4.4-51.93 11.38-64.79 6.98-12.86 15.73-32.07 46.62-46.38z" fill="#9FB0DD"/><path d="M415.44 228.16c-4.67-6.8-9.33-14-6.23-16.72 3.1-2.72 8.56 16.33 8.56 16.33l-2.33.4zM397.05 237.34c-5.78-5.9-11.62-12.18-9.02-15.38 2.6-3.2 11.24 14.6 11.24 14.6l-2.22.78zM376.45 248.81c-5.78-5.9-11.62-12.18-9.02-15.37 2.6-3.2 11.24 14.6 11.24 14.6l-2.22.77zM360.96 262.63c-7.13-4.1-14.47-8.56-12.85-12.37 1.61-3.8 14.8 10.98 14.8 10.98l-1.95 1.4zM349.88 274.14c-8.14-1.33-16.56-2.92-16.38-7.05.18-4.13 17.71 5.09 17.71 5.09l-1.33 1.96zM434.6 223.95c-3.65-7.4-7.23-15.2-3.77-17.44 3.46-2.25 6.14 17.4 6.14 17.4l-2.37.04zM455.76 220.72c-2.1-7.99-4.06-16.33-.22-17.85 3.85-1.51 2.55 18.27 2.55 18.27l-2.33-.42zM473.04 221.84c.51-8.23 1.26-16.78 5.38-17.02 4.13-.23-3.29 18.15-3.29 18.15l-2.09-1.13zM489.13 226.91c2.46-6 5.18-12.18 8.3-11.3 3.14.87-7.04 12.67-7.04 12.67l-1.26-1.37z" fill="#9DAEDC"/><path d="M452.75 220.58c-29.08 2.81-46.64 9.98-65.6 20.42-17.48 9.63-25.06 18.96-32.91 25.96a40.49 40.49 0 00-8.68 11.15c.42-.21 2.75-1.55 9.85-7.84 7.86-7 15.45-16.34 32.91-25.97 18.97-10.43 36.54-17.6 65.59-20.42 27.11-2.62 37.9 8.17 37.9 8.17 1.09-.56 2.1-1.29 2.97-2.15-4.03-2.73-19.05-11.55-42.03-9.32z" fill="#ACBBE2"/><path style="mix-blend-mode:multiply" opacity=".43" d="M370.74 291.95s-20.22 20.62-23.33 40.46c-2.03 12.97-2.56 27.6-2.7 36.18 15.1 22.44 37.45 41.62 40.4 41.13 3.5-.58 6.42-39.97 6.42-47.55 0-7.59 9.91-18.38 9.91-18.38-16.71-10.6-30.32-35.1-30.7-51.84z" fill="url(#paint19_linear)"/><path d="M443.13 299.74c2.83-6.04 13.82-30.62 15.9-24.37 1.82 5.5 3.07 16.93 4.4 22.76 1.32 5.84 1.3 12.08-4.23 11.53-3.97-.42-16.07-9.93-16.07-9.93z" fill="#F64848"/><path d="M348.2 561.91c-11.07 10.8-31.28 25.02-46.26 38.12-24.48 21.41-62.96 50.95-80.1 54.46h-27.06c-12.07 0-23.78-.41-33.05-6.98-15.91-11.28-14.12-53.8-14.12-53.8s10.91-.67 29.56-4.95c18.66-4.27 31.5-10.9 31.5-10.9 21.39-14 47.02-22.56 64.9-31.9 10.79-5.63 33.67-18.48 52.11-29.5-.51 13.53 4.56 24.3 7.73 30.29 2.49 4.68 11.5 12.37 14.78 15.16z" fill="#494C7E"/><path d="M452.16 502.2s-14.09.88-18.36 2.04c-4.28 1.17-7.1 4.77-17.2 10.22-10.1 5.44-27.98 12.45-36.54 17.12-8.56 4.66-23.31 16.71-23.31 16.71l-.49.48a66.55 66.55 0 01-10.42-13.3c-5.49-8.94-8.37-20.22-9.52-25.47 7.23-4.48 12.85-8.2 15.36-10.32 9.14-7.78 14.58-13.62 26.63-19.46 12.05-5.83 45.77-3.01 51.2-1.45 5.43 1.56 6.52 5.34 6.52 5.34 4.94.98 6.2 5.64 6.2 5.64s3.03 1.17 3.5 2.83c.95 3.2-.38 3.98-.38 3.98 5.06.88 6.81 5.64 6.81 5.64z" fill="#A2B2DE"/><path d="M356.25 548.77c-1.33 1.33-5.4 5.38-11.1 10.91-3.28-2.79-9.27-8.23-11.75-12.94-3.16-5.99-8.23-16.75-7.72-30.28 3.78-2.26 7.37-4.43 10.64-6.46 1.15 5.25 4.05 16.53 9.52 25.46a66.56 66.56 0 0010.4 13.31z" fill="#F27852"/><path d="M678.82 404.7h-11.66v-9.66l-.39-6.09h12.44l-.4 6.12v9.64z" fill="#646791"/><path opacity=".53" d="M791.6 360.58a4.47 4.47 0 01-3.57-5.22l28.53-152.12a4.47 4.47 0 118.78 1.65L796.82 357a4.48 4.48 0 01-5.22 3.57z" fill="#F5A4B7"/><path opacity=".53" d="M781.2 360.22a4.47 4.47 0 01-3.9-4.98l18.62-153.64a4.48 4.48 0 118.87 1.08l-18.61 153.65a4.48 4.48 0 01-4.98 3.9z" fill="#6E87CC"/><path opacity=".8" d="M724.9 645.24a8.48 8.48 0 01-8.48-8.5V527.4h16.97v109.36a8.5 8.5 0 01-8.49 8.49zM756.53 645.24a8.5 8.5 0 01-8.49-8.5V527.4h16.97v109.36a8.5 8.5 0 01-8.48 8.49zM788.16 645.24a8.49 8.49 0 01-8.48-8.5V527.4h16.97v109.36a8.5 8.5 0 01-8.49 8.49zM819.81 645.24a8.48 8.48 0 01-8.48-8.5V527.4h16.97v109.36a8.5 8.5 0 01-8.49 8.49zM693.27 645.24a8.48 8.48 0 01-8.49-8.5V527.4h16.97v109.36a8.5 8.5 0 01-8.48 8.49z" fill="#C5CFEB"/><path d="M840.52 605.9H670.7v4.43h169.82v-4.44zM840.52 645.24H670.7v9.26h169.82v-9.26z" fill="#494C7E"/><path d="M684.78 560.83v75.92a8.49 8.49 0 1016.97 0v-75.92h-16.97z" fill="#E72552"/><path d="M701.75 571.52H687.9v26.8h13.85v-26.8z" fill="#fff"/><path d="M701.06 539.7h-15.59v-12.92l-.52-8.14h16.63l-.52 8.17v12.88z" fill="#494C7E"/><path d="M700.42 573.75H689.8v.75h10.62v-.75zM700.42 575.5H689.8v.71h10.62v-.72zM700.42 577.32H689.8v.55h10.62v-.55zM700.42 579.1H689.8v.43h10.62v-.42zM700.42 580.67H689.8v.77h10.62v-.77zM700.42 582.52H689.8v.54h10.62v-.54zM700.42 584.29H689.8v.46h10.62v-.46zM700.42 586.08H689.8v.34h10.62v-.34zM700.42 587.74H689.8v.5h10.62v-.5zM700.42 589.5H689.8v.45h10.62v-.46zM700.42 591.33H689.8v.25h10.62v-.25zM700.42 592.8H689.8v.77h10.62v-.77zM700.42 594.55H689.8v.74h10.62v-.74z" fill="#06233F"/><path d="M716.41 555.63v81.13a8.5 8.5 0 0011.78 8.04 8.51 8.51 0 005.19-8.04v-81.13h-16.97z" fill="#E72552"/><path d="M730.26 571.52h-13.85v26.8h13.85v-26.8z" fill="#fff"/><path d="M732.69 539.7H717.1v-12.92l-.52-8.14h16.63l-.52 8.17v12.88z" fill="#494C7E"/><path d="M728.94 573.75h-10.62v.75h10.62v-.75zM728.94 575.5h-10.62v.71h10.62v-.72zM728.94 577.32h-10.62v.55h10.62v-.55zM728.94 579.1h-10.62v.43h10.62v-.42zM728.94 580.67h-10.62v.77h10.62v-.77zM728.94 582.52h-10.62v.54h10.62v-.54zM728.94 584.29h-10.62v.46h10.62v-.46zM728.94 586.08h-10.62v.34h10.62v-.34zM728.94 587.74h-10.62v.5h10.62v-.5zM728.94 589.5h-10.62v.45h10.62v-.46zM728.94 591.33h-10.62v.25h10.62v-.25zM728.94 592.8h-10.62v.77h10.62v-.77zM728.94 594.55h-10.62v.74h10.62v-.74z" fill="#06233F"/><path d="M748.04 565v71.75a8.52 8.52 0 005.2 8.04 8.49 8.49 0 0011.77-8.04V565h-16.97z" fill="#469DB0"/><path d="M764.8 571.52h-8.43v26.8h8.43v-26.8z" fill="#fff"/><path d="M764.32 539.7h-15.58v-12.92l-.52-8.14h16.62l-.52 8.17v12.88z" fill="#494C7E"/><path d="M764.81 573.75h-6.53v.75h6.53v-.75zM764.81 575.5h-6.53v.71h6.53v-.72zM764.81 577.32h-6.53v.55h6.53v-.55zM764.81 579.1h-6.53v.43h6.53v-.42zM764.81 580.67h-6.53v.77h6.53v-.77zM764.81 582.52h-6.53v.54h6.53v-.54zM764.81 584.29h-6.53v.46h6.53v-.46zM764.81 586.08h-6.53v.34h6.53v-.34zM764.81 587.74h-6.53v.5h6.53v-.5zM764.81 589.5h-6.53v.45h6.53v-.46zM764.81 591.33h-6.53v.25h6.53v-.25zM764.81 592.8h-6.53v.77h6.53v-.77zM764.81 594.55h-6.53v.74h6.53v-.74z" fill="#06233F"/><path d="M779.68 576.5v60.27a8.5 8.5 0 1016.97 0V576.5h-16.97z" fill="#F5A4B7"/><path d="M791.63 571.52h-11.95v26.8h11.95v-26.8z" fill="#fff"/><path d="M795.95 539.7h-15.58v-12.92l-.52-8.14h16.62l-.52 8.17v12.88z" fill="#494C7E"/><path d="M790.3 573.75h-10.62v.75h10.62v-.75zM790.3 575.5h-10.62v.71h10.62v-.72zM790.3 577.32h-10.62v.55h10.62v-.55zM790.3 579.1h-10.62v.43h10.62v-.42zM790.3 580.67h-10.62v.77h10.62v-.77zM790.3 582.52h-10.62v.54h10.62v-.54zM790.3 584.29h-10.62v.46h10.62v-.46zM790.3 586.08h-10.62v.34h10.62v-.34zM790.3 587.74h-10.62v.5h10.62v-.5zM790.3 589.5h-10.62v.45h10.62v-.46zM790.3 591.33h-10.62v.25h10.62v-.25zM790.3 592.8h-10.62v.77h10.62v-.77zM790.3 594.55h-10.62v.74h10.62v-.74z" fill="#06233F"/><path d="M811.3 560.83v75.92a8.5 8.5 0 1016.98 0v-75.92h-16.97z" fill="#E72552"/><path d="M827.13 571.52h-14.26v26.8h14.26v-26.8z" fill="#fff"/><path d="M827.59 539.7H812v-12.92l-.52-8.14h16.63l-.52 8.17v12.88z" fill="#494C7E"/><path d="M825.4 573.75h-10.63v.75h10.62v-.75zM825.4 575.5h-10.63v.71h10.62v-.72zM825.4 577.32h-10.63v.55h10.62v-.55zM825.4 579.1h-10.63v.43h10.62v-.42zM825.4 580.67h-10.63v.77h10.62v-.77zM825.4 582.52h-10.63v.54h10.62v-.54zM825.4 584.29h-10.63v.46h10.62v-.46zM825.4 586.08h-10.63v.34h10.62v-.34zM825.4 587.74h-10.63v.5h10.62v-.5zM825.4 589.5h-10.63v.45h10.62v-.46zM825.4 591.33h-10.63v.25h10.62v-.25zM825.4 592.8h-10.63v.77h10.62v-.77zM825.4 594.55h-10.63v.74h10.62v-.74z" fill="#06233F"/><path d="M673.47 545.64h-.7c-1.14 0-2.07.93-2.07 2.08v99.87c0 1.15.93 2.08 2.08 2.08h.69c1.15 0 2.08-.93 2.08-2.08v-99.87c0-1.15-.93-2.08-2.08-2.08zM838.44 545.64h-.7c-1.14 0-2.07.93-2.07 2.08v99.87c0 1.15.93 2.08 2.08 2.08h.69c1.14 0 2.08-.93 2.08-2.08v-99.87c0-1.15-.93-2.08-2.08-2.08z" fill="#494C7E"/><path d="M702.55 525.05h-18.58a1.17 1.17 0 000 2.34h18.58a1.17 1.17 0 000-2.34zM734.19 525.05H715.6a1.17 1.17 0 000 2.34h18.58a1.17 1.17 0 000-2.34zM765.82 525.05h-18.58a1.17 1.17 0 100 2.34h18.58a1.17 1.17 0 000-2.34zM797.45 525.05h-18.58a1.17 1.17 0 100 2.34h18.58a1.17 1.17 0 000-2.34zM829.08 525.05h-18.6a1.17 1.17 0 100 2.34h18.59a1.17 1.17 0 000-2.34h.01z" fill="#CFE6EA"/><path opacity=".67" d="M689.4 622.91a.26.26 0 01-.26-.26v-86.2a.27.27 0 01.26-.27c.08 0 .15.03.2.08.05.05.08.12.08.2v86.2a.26.26 0 01-.18.24.26.26 0 01-.1.01zM721.49 622.91a.26.26 0 01-.19-.07.27.27 0 01-.08-.19v-86.2c0-.07.03-.13.08-.18a.26.26 0 01.19-.08c.06 0 .13.03.18.08.05.05.08.11.08.18v86.2c0 .07-.03.14-.08.19a.26.26 0 01-.18.07zM753.58 622.91a.26.26 0 01-.26-.26v-86.2a.26.26 0 11.52 0v86.2c0 .07-.03.14-.08.19a.26.26 0 01-.18.07zM785.67 622.91a.26.26 0 01-.25-.26v-86.2c0-.07.02-.13.07-.18a.25.25 0 01.18-.08.26.26 0 01.27.26v86.2c0 .07-.03.14-.08.19a.27.27 0 01-.19.07zM817.77 622.91a.26.26 0 01-.26-.26v-86.2c0-.07.03-.14.08-.2a.28.28 0 01.39 0c.05.06.08.13.08.2v86.2c0 .04-.01.08-.03.1a.27.27 0 01-.15.15.27.27 0 01-.11.01z" fill="#fff"/><path d="M701.75 604.01V608c0 1.58-3.8 2.86-8.48 2.86-4.69 0-8.49-1.28-8.49-2.86V604c-2.25 1.01-3.65 2.42-3.65 3.98 0 3.07 5.43 5.56 12.14 5.56 6.7 0 12.13-2.49 12.13-5.56 0-1.56-1.4-2.94-3.65-3.98zM733.38 604.01V608c0 1.58-3.8 2.86-8.48 2.86-4.69 0-8.49-1.28-8.49-2.86V604c-2.25 1.01-3.65 2.42-3.65 3.98 0 3.07 5.44 5.56 12.14 5.56s12.13-2.49 12.13-5.56c0-1.56-1.4-2.94-3.65-3.98zM765.01 604.01V608c0 1.58-3.8 2.86-8.48 2.86-4.68 0-8.49-1.28-8.49-2.86V604c-2.25 1.01-3.64 2.42-3.64 3.98 0 3.07 5.43 5.56 12.13 5.56 6.7 0 12.13-2.49 12.13-5.56 0-1.56-1.4-2.94-3.65-3.98zM796.65 604.01V608c0 1.58-3.8 2.86-8.49 2.86-4.68 0-8.48-1.28-8.48-2.86V604c-2.25 1.01-3.65 2.42-3.65 3.98 0 3.07 5.43 5.56 12.13 5.56 6.7 0 12.13-2.49 12.13-5.56 0-1.56-1.4-2.94-3.64-3.98zM828.28 604.01V608c0 1.58-3.8 2.86-8.48 2.86-4.69 0-8.5-1.28-8.5-2.86V604c-2.24 1.01-3.64 2.42-3.64 3.98 0 3.07 5.43 5.56 12.14 5.56 6.7 0 12.13-2.49 12.13-5.56 0-1.56-1.4-2.94-3.65-3.98z" fill="#494C7E"/><path opacity=".22" d="M751.44 241.47h-3.84a2.3 2.3 0 00-1.53 4.05c2.7 2.34 5.4 5.38 5.4 8.2v94.65a14.71 14.71 0 0014.69 14.7h40.6a14.7 14.7 0 0014.69-14.7V243.45a1.98 1.98 0 00-1.98-1.98h-68.03z" fill="#6E87CC"/><path d="M783.76 261.02H761.3a.44.44 0 010-.88h22.45c.12 0 .23.04.3.13a.44.44 0 010 .62.44.44 0 01-.3.13zM783.76 275.62H761.3a.44.44 0 110-.88h22.45c.12 0 .23.05.3.13a.44.44 0 010 .62.44.44 0 01-.3.13zM778.67 263.93H765.8a.43.43 0 01-.34-.1.45.45 0 01-.1-.5c.01-.07.05-.12.1-.16.04-.04.1-.07.16-.1a.43.43 0 01.18-.01h12.86a.43.43 0 01.34.1c.04.05.08.1.1.16a.45.45 0 010 .36.45.45 0 01-.45.26zM778.67 266.84H765.8a.44.44 0 110-.88h12.86a.44.44 0 110 .88zM778.67 269.77H765.8a.44.44 0 110-.88h12.86a.44.44 0 110 .88zM778.67 272.69H765.8a.44.44 0 110-.88h12.86c.11 0 .23.05.3.13a.44.44 0 01-.3.75zM783.76 290.2H761.3a.44.44 0 01-.44-.45.44.44 0 01.44-.44h22.45a.44.44 0 01.3.75.43.43 0 01-.3.13zM778.67 278.52H765.8a.44.44 0 110-.88h12.86a.44.44 0 01.31.75.44.44 0 01-.31.13zM778.67 281.44H765.8a.44.44 0 110-.88h12.86c.11 0 .23.05.3.13a.44.44 0 01-.3.75zM778.67 284.36H765.8a.44.44 0 010-.88h12.86a.44.44 0 01.3.75.44.44 0 01-.3.13zM778.67 287.27H765.8a.44.44 0 01-.31-.13.44.44 0 010-.62c.08-.08.2-.13.3-.13h12.87c.11 0 .23.05.3.13a.44.44 0 01-.3.75zM783.76 304.78H761.3a.44.44 0 01-.44-.44.44.44 0 01.44-.44h22.45a.44.44 0 01.3.75.43.43 0 01-.3.13zM778.67 293.1H765.8a.44.44 0 010-.87h12.86a.44.44 0 01.3.75.44.44 0 01-.3.13zM778.67 296.02H765.8a.43.43 0 01-.34-.1.45.45 0 01-.1-.5c.01-.07.05-.12.1-.16.04-.04.1-.07.16-.1a.43.43 0 01.18 0h12.86a.43.43 0 01.34.1c.04.04.08.1.1.15a.44.44 0 01-.1.5.45.45 0 01-.34.11zM778.67 298.94H765.8a.44.44 0 010-.87h12.86a.44.44 0 01.44.44.44.44 0 01-.44.44zM778.67 301.86H765.8a.44.44 0 01-.31-.13.44.44 0 010-.62c.08-.08.2-.13.3-.13h12.87c.11 0 .23.05.3.13a.44.44 0 01-.3.75zM783.76 319.36H761.3a.44.44 0 010-.88h22.45c.12 0 .23.05.3.13a.44.44 0 010 .63.44.44 0 01-.3.12zM778.67 307.7H765.8a.44.44 0 01-.31-.13.44.44 0 010-.62c.08-.08.2-.13.3-.13h12.87a.44.44 0 01.44.44.44.44 0 01-.44.44zM778.67 310.61H765.8a.44.44 0 01-.31-.13.44.44 0 010-.62c.08-.08.2-.13.3-.13h12.87c.11 0 .23.05.3.13a.44.44 0 01-.3.75zM778.67 313.5H765.8c-.06.01-.13 0-.18-.01a.46.46 0 01-.16-.1.44.44 0 01.34-.76h12.86a.43.43 0 01.34.11.44.44 0 01.1.5.45.45 0 01-.27.24c-.05.03-.11.03-.17.03zM778.67 316.45H765.8a.44.44 0 110-.88h12.86a.44.44 0 01.31.75.44.44 0 01-.31.13zM783.76 333.95H761.3a.44.44 0 01-.44-.44.44.44 0 01.44-.44h22.45a.44.44 0 01.3.75.43.43 0 01-.3.13zM778.67 322.29H765.8a.44.44 0 110-.88h12.86c.11 0 .23.05.3.13a.44.44 0 01-.3.75zM778.67 325.2H765.8a.44.44 0 110-.88h12.86a.44.44 0 110 .88zM778.67 328.12H765.8a.44.44 0 010-.88h12.86a.44.44 0 01.3.75.44.44 0 01-.3.13zM778.67 331.04H765.8a.44.44 0 010-.88h12.86a.44.44 0 01.3.75.44.44 0 01-.3.13zM783.76 348.54H761.3a.44.44 0 110-.88h22.45a.44.44 0 01.44.44.44.44 0 01-.44.44zM778.67 336.87H765.8a.44.44 0 01-.31-.13.44.44 0 010-.62c.08-.08.2-.13.3-.13h12.87c.11 0 .23.05.3.13a.44.44 0 01-.3.75zM778.67 339.79H765.8a.44.44 0 01-.31-.13.44.44 0 010-.62c.08-.08.2-.13.3-.13h12.87c.11 0 .23.05.3.13a.44.44 0 01-.3.75zM778.67 342.7H765.8a.44.44 0 010-.88h12.86a.44.44 0 01.3.75.44.44 0 01-.3.13zM778.67 345.62H765.8a.43.43 0 01-.34-.11.45.45 0 01-.1-.5c.01-.06.05-.11.1-.15.04-.05.1-.08.16-.1a.43.43 0 01.18-.01h12.86a.43.43 0 01.34.1c.04.05.08.1.1.15a.45.45 0 010 .36.45.45 0 01-.45.26zM778.67 351.46H765.8a.44.44 0 010-.88h12.86a.44.44 0 01.44.44.44.44 0 01-.44.44zM778.67 354.37H765.8a.43.43 0 01-.34-.1.45.45 0 01-.1-.5c.01-.07.05-.12.1-.16.04-.04.1-.07.16-.1a.43.43 0 01.18-.01h12.86a.43.43 0 01.34.1c.04.05.08.1.1.15a.45.45 0 010 .36.45.45 0 01-.45.26zM778.67 357.3H765.8a.44.44 0 110-.89h12.86c.11 0 .23.05.3.13a.44.44 0 01-.3.75zM778.67 360.2H765.8a.44.44 0 110-.87h12.86a.44.44 0 110 .88z" fill="#06233F"/><path opacity=".8" d="M735.6 273.24v-70.82h-24.04v70.82c0 3.2-.53 6.4-1.56 9.43l-23.28 68.72a8.85 8.85 0 008.37 11.68h56.97a8.82 8.82 0 008.74-7.54c.2-1.39.08-2.8-.37-4.14l-23.28-68.73a29.45 29.45 0 01-1.55-9.42z" fill="#C5CFEB"/><path opacity=".54" d="M735.45 198.69H711.7c-.98 0-1.77.8-1.77 1.78v.18c0 .98.8 1.78 1.78 1.78h23.74c.98 0 1.78-.8 1.78-1.78v-.18c0-.98-.8-1.78-1.78-1.78z" fill="#6E87CC"/><path opacity=".8" d="M680 438.2v-41.37h-14.03v41.36c0 1.87-.31 3.73-.91 5.5l-13.6 40.14a5.16 5.16 0 004.9 6.82h33.26a5.16 5.16 0 004.9-6.82l-13.6-40.15c-.6-1.76-.91-3.62-.91-5.49z" fill="#C5CFEB"/><path opacity=".54" d="M679.91 394.65h-13.85c-.58 0-1.05.47-1.05 1.04v.1c0 .58.47 1.04 1.05 1.04h13.85c.58 0 1.05-.46 1.05-1.04v-.1c0-.57-.47-1.04-1.05-1.04z" fill="#BFCAE9"/><path d="M868.57 363.08H639.64v16.97h228.93v-16.97zM868.57 490.66H639.64v16.97h228.93v-16.97z" fill="#494C7E"/><path d="M651.46 483.84a5.17 5.17 0 004.9 6.83h33.26a5.16 5.16 0 004.9-6.83l-11.75-34.65H663.2l-11.74 34.65z" fill="#469DB0"/><path d="M724.78 404.7h-11.66v-9.66l-.39-6.09h12.44l-.39 6.12v9.64z" fill="#646791"/><path opacity=".8" d="M726 438.2v-41.37h-14.04v41.36c0 1.87-.3 3.73-.9 5.5l-13.6 40.14a5.18 5.18 0 004.89 6.82h33.27a5.15 5.15 0 004.89-6.82l-13.6-40.15a17.2 17.2 0 01-.9-5.49z" fill="#C5CFEB"/><path opacity=".54" d="M725.88 394.65h-13.86c-.57 0-1.04.47-1.04 1.04v.1c0 .58.47 1.04 1.04 1.04h13.86c.58 0 1.04-.46 1.04-1.04v-.1c0-.57-.46-1.04-1.04-1.04z" fill="#BFCAE9"/><path d="M774.34 404.7h-11.66v-9.66l-.4-6.09h12.45l-.4 6.12v9.64z" fill="#646791"/><path opacity=".8" d="M775.53 438.2v-41.37h-14.04v41.36c0 1.87-.3 3.73-.91 5.5l-13.6 40.14a5.15 5.15 0 004.9 6.82h33.27a5.16 5.16 0 004.88-6.82l-13.59-40.15c-.6-1.76-.91-3.62-.91-5.49z" fill="#C5CFEB"/><path opacity=".54" d="M775.44 394.65h-13.86c-.58 0-1.04.47-1.04 1.04v.1c0 .58.46 1.04 1.04 1.04h13.86c.57 0 1.04-.46 1.04-1.04v-.1c0-.57-.47-1.04-1.04-1.04z" fill="#BFCAE9"/><path d="M831.48 403.83h-11.66v-9.66l-.39-6.1h12.44l-.39 6.12v9.64z" fill="#55A685"/><path opacity=".54" d="M832.58 393.77h-13.86c-.58 0-1.04.47-1.04 1.04v.1c0 .58.47 1.05 1.04 1.05h13.86c.57 0 1.04-.47 1.04-1.05v-.1c0-.57-.47-1.04-1.04-1.04z" fill="#BFCAE9"/><path d="M733.58 463.48h-29.25l-6.9 20.36a5.17 5.17 0 004.89 6.83h33.27a5.16 5.16 0 004.89-6.83l-6.9-20.36z" fill="#E72552"/><path opacity=".8" d="M832.67 431.51v-35.56h-14.04v35.56a6.66 6.66 0 01-4.2 6.19 30.61 30.61 0 00-17.9 37.94 30.62 30.62 0 008.16 12.88 8.47 8.47 0 005.8 2.28h30.33c2.15 0 4.22-.81 5.8-2.28a30.62 30.62 0 00-9.75-50.82 6.64 6.64 0 01-4.2-6.19z" fill="#C5CFEB"/><path d="M795.05 466.4a30.57 30.57 0 009.64 22.12 8.47 8.47 0 005.8 2.28h30.33c2.15 0 4.22-.81 5.8-2.28a30.52 30.52 0 009.64-22.12h-61.21z" fill="#55A685"/><path d="M746.99 483.84a5.15 5.15 0 004.88 6.83h33.28a5.16 5.16 0 004.88-6.83l-8.07-23.86h-26.88l-8.1 23.86z" fill="#F6B2C2"/><path d="M726.92 476.83a.43.43 0 01-.42-.36l-6.59-34.22V415.8c0-.06 0-.12.02-.18a.44.44 0 01.6-.27.44.44 0 01.25.45v26.28l6.59 34.2a.45.45 0 01-.35.52l-.1.02zM776.47 476.83a.43.43 0 01-.43-.36l-6.58-34.22V415.8a.43.43 0 01.11-.34.43.43 0 01.33-.15.44.44 0 01.43.49v26.28l6.59 34.2a.45.45 0 01-.35.5l-.1.04zM737.23 331.04a.44.44 0 01-.44-.36l-12.07-59.38V225.7a.44.44 0 01.88 0v45.48l12.07 59.34c.02.11 0 .23-.06.33a.44.44 0 01-.28.19h-.1zM680.96 476.83a.43.43 0 01-.43-.36l-6.58-34.22V415.8a.45.45 0 01.12-.31.44.44 0 01.75.31v26.28l6.59 34.2a.44.44 0 01-.35.5l-.1.04zM839.26 456.8a.45.45 0 01-.43-.35c-1.2-6.18-5.54-11.68-8.96-15.2a11.3 11.3 0 01-3.18-7.93v-19.16c0-.06 0-.12.02-.18a.45.45 0 01.42-.3.45.45 0 01.33.14c.04.05.07.1.09.16.01.06.02.12.01.18v19.16a10.44 10.44 0 002.94 7.32c3.5 3.61 7.94 9.25 9.19 15.64a.43.43 0 01-.35.52h-.08zM793.22 308.32a.44.44 0 01-.4-.27.42.42 0 01-.04-.17v-48.64a.43.43 0 01.11-.34c.04-.04.1-.08.15-.1a.45.45 0 01.36 0 .46.46 0 01.24.26c.01.06.02.12.01.18v48.64c0 .11-.04.23-.12.3a.44.44 0 01-.31.14z" fill="#fff"/><path opacity=".22" d="M660.17 307.88h73.46v16.47a1.9 1.9 0 01-1.9 1.9h-69.68a1.9 1.9 0 01-1.9-1.9v-16.47h.02zM731.11 326.28H662.7a2.52 2.52 0 00-2.52 2.52v13.35c0 1.4 1.13 2.53 2.52 2.53h68.42c1.4 0 2.52-1.13 2.52-2.53V328.8c0-1.4-1.13-2.52-2.52-2.52z" fill="#6E87CC"/><path d="M662.7 326.28h68.41a2.52 2.52 0 012.52 2.52v.5h-73.46v-.5a2.52 2.52 0 012.52-2.52z" fill="#379670"/><path opacity=".22" d="M731.11 344.68H662.7a2.52 2.52 0 00-2.52 2.51v13.36c0 1.4 1.13 2.52 2.52 2.52h68.42c1.4 0 2.52-1.13 2.52-2.52V347.2c0-1.39-1.13-2.51-2.52-2.51z" fill="#6E87CC"/><path d="M662.7 344.68h68.41a2.52 2.52 0 012.52 2.51v.52h-73.46v-.51a2.53 2.53 0 012.52-2.52zM660.24 307.88c-.04.8-.07 1.64-.07 2.52 0 5.27 16.46 9.54 36.76 9.54 20.3 0 36.76-4.27 36.76-9.54 0-.9 0-1.72-.04-2.52h-73.41z" fill="#379670"/><path d="M696.9 317.4c20.29 0 36.73-4.26 36.73-9.52 0-5.27-16.44-9.53-36.73-9.53-20.28 0-36.73 4.26-36.73 9.53 0 5.26 16.45 9.53 36.73 9.53z" fill="#10BB69"/><path opacity=".22" d="M778.67 326.28h73.45v16.47a1.9 1.9 0 01-1.9 1.9h-69.67a1.9 1.9 0 01-1.9-1.9v-16.47h.02zM849.6 344.68h-68.43a2.52 2.52 0 00-2.51 2.51v13.36c0 1.4 1.12 2.52 2.51 2.52h68.43c1.39 0 2.51-1.13 2.51-2.52V347.2c0-1.39-1.12-2.51-2.51-2.51z" fill="#6E87CC"/><path d="M781.17 344.68h68.43a2.52 2.52 0 012.51 2.51v.52h-73.44v-.51a2.52 2.52 0 012.5-2.52zM778.72 326.28c-.04.8-.06 1.64-.06 2.52 0 5.27 16.45 9.53 36.75 9.53s36.76-4.26 36.76-9.53c0-.89 0-1.72-.03-2.52h-73.42z" fill="#F64848"/><path d="M815.38 335.8c20.29 0 36.73-4.26 36.73-9.52 0-5.27-16.44-9.53-36.73-9.53-20.28 0-36.72 4.26-36.72 9.53 0 5.26 16.44 9.53 36.73 9.53z" fill="#F86767"/><path d="M272.01 642.93h141v1.37a10.2 10.2 0 01-10.2 10.2H282.2a10.19 10.19 0 01-10.2-10.2v-1.37h.02z" fill="#06233F"/><path d="M302.94 631.4h79.12v3.92a7.64 7.64 0 01-7.63 7.63h-63.86a7.62 7.62 0 01-7.63-7.63v-3.92z" fill="#E72552"/><path d="M467.11 276.12a13.02 13.02 0 00-4.76 17.8l22.05 38.25 22.55-13.03-22.05-38.24a13.03 13.03 0 00-17.79-4.78zM430.3 276.12a13.04 13.04 0 00-4.76 17.8l22.04 38.25 22.55-13.03-22.06-38.24a13.02 13.02 0 00-17.76-4.78z" fill="#494C7E"/><path d="M420.39 502.2h114.99a12.79 12.79 0 0112.8 12.8v16.53a3.3 3.3 0 01-3.3 3.3h-124.5V502.2z" fill="#CBD4ED"/><path d="M419.88 502.2h104.64v32.64H409.2a3.3 3.3 0 01-3.29-3.3v-15.32a14.02 14.02 0 0113.97-14.02z" fill="#FEFEFD"/><path d="M446.22 631.4h205.72a10.96 10.96 0 0110.97 10.98v12.11h-216.7V631.4z" fill="#ACBBE2"/><path d="M643.38 631.39H426.66v23.1h216.72v-23.1z" fill="#D5DCF0"/><path d="M651.94 631.4H426.66v4.3h233.96a10.98 10.98 0 00-8.68-4.3z" fill="#fff"/><path d="M472 483.77c-2.64 5.23-9.04 2-6.4-3.23l11.1-22.03 6.4 3.23-11.1 22.03z" fill="#494C7E"/><path d="M471.86 481.63c.44 0 .88-.06 1.3-.17l1.05-2.05a5.68 5.68 0 01-6.4-3.23l-1.1 2.16a5.67 5.67 0 005.15 3.3z" fill="#E72552"/><path d="M459.77 474.24c-2.64 5.23-9.04 2-6.4-3.23l11.1-22.03 6.4 3.23-11.1 22.03z" fill="#494C7E"/><path d="M459.62 472.1c.44 0 .88-.06 1.31-.17l1.04-2.05a5.64 5.64 0 01-6.4-3.23l-1.1 2.16a5.65 5.65 0 005.15 3.3z" fill="#E72552"/><path d="M487.43 490.55c-2.64 5.23-9.03 2-6.4-3.23l11.11-22.02 6.4 3.22-11.1 22.03z" fill="#494C7E"/><path d="M487.29 488.42c.44-.01.88-.07 1.3-.18l1.04-2.05a5.67 5.67 0 01-6.4-3.23l-1.1 2.16a5.64 5.64 0 005.16 3.3z" fill="#E72552"/><path d="M504.37 493.86c-2.64 5.23-9.04 2-6.4-3.23l11.1-22.03 6.4 3.23-11.1 22.03z" fill="#494C7E"/><path d="M504.2 491.72c.43 0 .87-.06 1.3-.17l1.04-2.05a5.65 5.65 0 01-6.4-3.23l-1.1 2.16a5.67 5.67 0 005.15 3.29z" fill="#E72552"/><path d="M520.49 477.8c-6.32 12.55-68.97-19.09-62.65-31.63l26.6-52.78 62.65 31.64-26.6 52.78z" fill="#D1D9EF"/><path d="M604.5 455.7h-41.93v17.51l-19.59-8.92a21.8 21.8 0 01-3.4-4.09c-2.45-3.67-16.96-23.56-15.78-31.37 10.43-1.3 22.04-2.6 22.04-2.6l58.66 29.48z" fill="#E2E7F5"/><path d="M614.46 477.7h-42.01l-9.88-4.5v-17.5h41.94a17.3 17.3 0 019.53 14.54l.42 7.46z" fill="#D1D9EF"/><path d="M453.9 631.4s9.95-14.82 9.95-49.24-9.95-47.32-9.95-47.32h80.29s-8.89 18.52-8.89 45.57 24.63 31.8 38.25 26.8c20.25-7.42 17.87-31.55 17.87-72.36v-53.07l-8.95-4.08h42l8.62 153.7h-169.2z" fill="#BBC7E7"/><path d="M426.66 631.4s-8.9-14.82-8.9-49.24 8.9-47.3 8.9-47.3h80.3s-8.9 18.52-8.9 45.57 24.65 31.8 38.26 26.81c20.25-7.42 17.87-31.55 17.87-72.36v-53.1l-38.4-17.5s-10.4-7.14-7.56-20.44c2.9-13.72 15.6-15.02 15.6-15.02l53.46 26.89a17.35 17.35 0 019.53 14.53l9.05 161.16H426.66z" fill="#F7F7F5"/><path d="M506.95 534.84h-80.3s-2.19 3.1-4.8 11.7l83.48-7.76c.96-2.55 1.62-3.94 1.62-3.94z" fill="#134C83" opacity=".21"/><path d="M568.53 595.85c8.37 0 15.15-8.88 15.15-19.83 0-10.96-6.78-19.84-15.15-19.84-8.38 0-15.16 8.88-15.16 19.84 0 10.95 6.78 19.83 15.16 19.83z" fill="#6E87CC"/><path d="M568.53 556.17h-23.67v39.68h23.67v-39.68z" fill="#6E87CC"/><path d="M544.86 595.85c8.37 0 15.16-8.88 15.16-19.83 0-10.96-6.79-19.84-15.16-19.84-8.37 0-15.16 8.88-15.16 19.84 0 10.95 6.79 19.83 15.16 19.83z" fill="#9AABDB"/><path d="M543.64 593.56c7.4 0 13.41-7.85 13.41-17.54 0-9.7-6-17.55-13.4-17.55-7.41 0-13.42 7.86-13.42 17.55 0 9.69 6 17.54 13.41 17.54z" fill="#fff"/><path d="M490.47 375.27c-6.37-10.98-22.78-43.3-26-51.03-1.94-4.67 3.47-14.5 22.5-23.46 21.24-10 33.08-3.1 33.08-3.1l32.26 61.52-16.21 21.03-45.63-4.96z" fill="#DBE1F2"/><path d="M441.1 388.88c-6.36-10.98-22.77-43.3-25.99-51.03-1.94-4.67 3.47-14.5 22.5-23.46 21.23-10 33.07-3.1 33.07-3.1l32.27 61.5-16.21 21.03-45.64-4.94z" fill="#E8ECF7"/><path d="M440.96 380.25c4.36-11.77 19.62-6.8 30.12-3.7a713.75 713.75 0 0020.99 5.84l-10.5 22.56s-7.57-.38-21.18-4.67c-13.6-4.28-23.32-9.53-19.43-20.03zM534.24 378.25c.87-1.01 14.58-21.34 18.07-19.05 3.5 2.29-12.53 21.96-12.53 21.96l-5.54-2.9z" fill="#B4C1E4"/><path d="M473.6 408.06c0-.87 2.15-16.95 15.37-31.7 15.16-16.92 44.98-14.86 51.3-8.94 8.75 8.16 10.5 21.4 10.89 31.5.28 7-.11 14-1.17 20.9 0 0-12.24 7.79-36.76 3.41-24.51-4.37-39.62-15.17-39.62-15.17z" fill="#fff"/><path d="M610.13 255.05a63.12 63.12 0 0063.1-63.14 63.12 63.12 0 00-63.1-63.15 63.12 63.12 0 00-63.1 63.15 63.12 63.12 0 0063.1 63.14z" fill="#7EBAC8"/><path d="M610.13 250.59a58.65 58.65 0 0058.63-58.68 58.65 58.65 0 00-58.63-58.68 58.65 58.65 0 00-58.63 58.68 58.65 58.65 0 0058.63 58.68z" fill="#F7F7F5"/><path d="M577.75 206.44c1.88-5.49 10.07-5.98 14-1.7 3.93 4.27 8.88 6.83 13.48 6.65a7.43 7.43 0 012.2 14.19c-10.56 6.67-33.78-7.2-29.68-19.14zM655.47 177.34c-2.2 5.37-10.43 5.36-14.08.86-3.65-4.5-8.44-7.35-13.04-7.45a7.42 7.42 0 01-1.35-14.27c10.95-6.04 33.28 9.2 28.47 20.86zM630.55 223.35c-3.23-3.78 0-10.03 4.85-11.07 4.85-1.04 8.9-3.57 10.8-7.05a6.36 6.36 0 0111.4 4.56c.28 10.71-20.04 21.8-27.05 13.56zM574.7 173.12c4.38 2.33 3.7 9.33-.44 12.08-4.14 2.74-6.97 6.59-7.44 10.52a6.36 6.36 0 01-12.28 0c-4.22-9.87 10.6-27.67 20.15-22.6z" fill="#B9D4C6"/><path d="M599.47 205.78c2.2 4.3 8.7 2.2 12.42 5.9 4.06 4.06 1.53 7.69 6.66 9.88 5.12 2.2 8.7-3.59 9.21-7.43.51-3.85-1.02-10.25-7.3-14.35-6.26-4.1-12.77-3.96-15.74-3.08-3.46 1.01-7.55 4.6-5.25 9.08zM588.2 195.79c-1.04 2.83 2.43 6.04 4.87 5.9 2.44-.15 5.38-2.7 3.71-5.9-1.66-3.2-6.78-4.87-8.57 0zM612.79 171.96c-1.04 2.83 2.43 6.03 4.86 5.9 2.43-.15 5.38-2.7 3.71-5.9-1.67-3.21-6.78-4.87-8.57 0z" fill="#B9D4C6"/><path d="M597.73 188.48c-.49 2.65 1.58 4.86 3.7 5.66a9.1 9.1 0 006.69-.16c1.86-.9 4.98-1.44 7.49-.62 2.5.83 5.07 3.82 6.82 5.12 4.02 3 8.23-.55 7.13-5.9-.98-4.55-4.79-8.45-10.8-10.44-6.42-2.1-10.43-1.52-14.1-.38-3.05.96-6.08 2.17-6.93 6.72zM584.56 174.94c-1.96 1.48-5.48.33-7.63-1.61-3.58-3.25-2.8-8.5-.14-10.18 1.86-1.17 4.64-.2 6.25 1.06 3.39 2.7 4.12 8.77 1.52 10.73zM636.14 185.8c-1.8 3.25.08 7.47.38 7.93 2.01 2.96 5.88 3.78 7.69 4.16 5.42 1.1 6.99-.5 9.81 1.1 3.64 2.1 2.71 5.14 6.16 5.79 2.43.45 3.93-1.69 4.23-3.76.54-3.8-2.94-7.98-6.96-9.68-4.87-2.07-8.37.46-11.02-2.08-2.25-2.15.29-3.7-3.06-6.06-1.8-1.26-5.75-.13-7.23 2.6zM584.46 192.1c-2.2-3.02-6.78-3.15-7.32-3.07-3.53.55-5.94 3.67-7.06 5.15-3.35 4.4-2.57 6.53-5.25 8.38-3.45 2.38-5.8.22-7.87 3.06-1.46 2-.17 4.28 1.57 5.44 3.19 2.12 8.46.78 11.72-2.1 3.97-3.51 3.19-7.77 6.63-9.06 2.9-1.1 3.2 1.85 6.78-.15 1.93-1.09 2.6-5.13.8-7.65zM584.88 188.87c1.35.34 5.44 1.1 8.96-1.54.66-.48 4.48-3.32 3.84-7.3-.41-2.53-2.44-4.39-4.36-5.13-3.21-1.27-6.29.42-8.57 1.65-1.82 1-7 3.84-6.53 7.3.47 3.47 6 4.86 6.65 5.02zM599.04 168.62c-.59 2.58-.46 8.19 2.3 9.82 4 2.37 7.68-.93 8.45-4.9.55-2.79.9-3.79 2.05-5.26 1.43-1.83 3.43-1.17 4.76-3.78.7-1.37.05-4.46-2.4-5.8-3.37-1.83-7.39 0-8.81.72-4.16 2.05-5.91 7.31-6.35 9.2zM623.14 238.66c2.65 0 8.08-1.45 9.02-4.5 1.37-4.47-2.68-7.24-6.73-7.1-2.84.1-3.89 0-5.59-.77-2.1-.96-1.93-3.06-4.77-3.76-1.5-.36-4.36 1-5.08 3.7-1 3.7 1.72 7.18 2.74 8.4 2.96 3.57 8.49 4.05 10.41 4.03zM635.72 182c.55-3.04-1.3-5.8-2.85-7.28-1.86-1.76-6.13-1.78-8.18-.47-2.2 1.4-4.3 4.6-2.6 6.9.96 1.3 2.52.9 5.18 2.78 2.2 1.57 2.66 3.55 5.45 2.75 2.1-.59 2.73-3.16 3-4.68zM594.42 157.36c-3.08-.05-5.52 2.2-6.74 3.97-1.43 2.11-.77 6.33.84 8.15 1.73 1.96 5.23 3.51 7.23 1.48 1.13-1.16.48-2.64 1.91-5.56 1.2-2.45 3.09-3.2 1.86-5.83-.92-2-3.54-2.2-5.1-2.21zM629.2 203.32c.6 3.02 3.3 4.94 5.3 5.76 2.37.97 6.34-.55 7.78-2.51 1.56-2.11 2.35-5.86-.05-7.4-1.37-.86-2.69.09-5.84-.7-2.64-.66-3.76-2.36-6.08-.61-1.74 1.32-1.41 3.94-1.1 5.46z" fill="#B9D4C6"/><path d="M648.4 183.6c-.73 1.45.66 3.94 2.5 4.03 1.5.06 3.1-1.52 2.86-3.07-.19-1.19-1.41-1.94-2.44-2.1-1.03-.17-2.42.18-2.91 1.15zM655.33 185.62a4.33 4.33 0 001.94 4.05c1.95 1.17 4.56.32 5.71-1.37.87-1.26 1.1-3.26.25-4.03-.78-.7-1.7.28-4.2-.14-1.52-.25-2.19-.78-2.9-.34-.7.44-.76 1.4-.8 1.83zM655.91 180.16c.04.85.94 1.43 1.38 1.72.45.3 2.2 1.42 4.16.55a3.97 3.97 0 002.35-4.02c-.2-1.5-1.82-3.87-3.54-3.58-1.73.28-.98.85-3.16 2.87a3.4 3.4 0 00-1.19 2.46zM665.74 192.17a2.05 2.05 0 01-3.48 1.44 2.04 2.04 0 113.48-1.44zM623.3 156.57a3.58 3.58 0 11-7.15 0 3.58 3.58 0 017.15 0zM604.44 156.94a2.3 2.3 0 11-4.61.01 2.3 2.3 0 014.6 0zM620.75 166.2a1.47 1.47 0 11-2.94 0 1.47 1.47 0 012.94 0zM572.13 219.96a4.65 4.65 0 100-9.3 4.65 4.65 0 000 9.3zM556.77 200.9a1.47 1.47 0 11-2.94 0 1.47 1.47 0 012.94 0zM628.53 223.5a2.2 2.2 0 11-4.4 0 2.2 2.2 0 014.4 0zM605.29 239.94a5.84 5.84 0 10-2.69-11.36 5.84 5.84 0 002.69 11.35zM581.3 221.88a3.07 3.07 0 11-6.13 0 3.07 3.07 0 016.13 0zM593.06 234.7a3.73 3.73 0 100-7.47 3.73 3.73 0 000 7.47zM616.48 150.12a6.12 6.12 0 11-12.24 0 6.12 6.12 0 0112.24 0zM598.86 154.88a4.02 4.02 0 10-5.69-5.69 4.02 4.02 0 005.7 5.69zM586.66 160.17a2.6 2.6 0 01-4.41 1.83 2.59 2.59 0 114.4-1.83zM572.9 167.91a2.88 2.88 0 01-3.43 2.83 2.87 2.87 0 113.42-2.83zM631.2 150.44a4.3 4.3 0 11-8.6 0 4.3 4.3 0 018.6 0zM591.24 154.83a2.97 2.97 0 11-5.93 0 2.97 2.97 0 015.93 0zM574.59 163.07a1.83 1.83 0 01-2.17 1.78 1.81 1.81 0 112.17-1.78zM621.64 149.26a2.2 2.2 0 11-4.4 0 2.2 2.2 0 014.4 0zM635.79 151.65a1.92 1.92 0 11-3.83.01 1.92 1.92 0 013.83 0zM584.93 225.32c1.99.75 2.52 3.84 2.2 5.87-.05.27-.78 4.19-3.95 4.84-2.66.55-5.54-1.49-5.86-3.84-.27-1.91 1.27-3.45 2.29-4.47.83-.84 3.2-3.2 5.32-2.4zM571.17 224.3c1.68-.9 3.74.18 4.59 1.64.73 1.29.74 3.2-.38 4.22-1.46 1.32-4.3.73-5.36-1.15-.84-1.5-.5-3.82 1.15-4.71zM566.07 220.09c1.29-.82 3.35-.65 3.95.5.6 1.16-.38 2.8-1.64 3.45-1.13.58-2.91.58-3.57-.5-.66-1.1.16-2.75 1.26-3.45zM560.46 215.23c.29-1.46 2.57-2.7 4.34-1.92a3 3 0 011.78 3.06 2.86 2.86 0 01-2.04 2.3c-1.98.52-4.41-1.7-4.08-3.44z" fill="#B9D4C6"/><defs><linearGradient id="paint0_linear" x1="620.16" y1="535.91" x2="707.56" y2="565.49" gradientUnits="userSpaceOnUse"><stop stop-color="#0D5A52"/><stop offset="1" stop-color="#fff"/></linearGradient><linearGradient id="paint1_linear" x1="1063060" y1="-3131970" x2="1061850" y2="-3132160" gradientUnits="userSpaceOnUse"><stop stop-color="#0D5A52"/><stop offset="1" stop-color="#fff"/></linearGradient><linearGradient id="paint2_linear" x1="1778200" y1="-2949570" x2="1772850" y2="-2948740" gradientUnits="userSpaceOnUse"><stop stop-color="#0D5A52"/><stop offset="1" stop-color="#fff"/></linearGradient><linearGradient id="paint3_linear" x1="601.75" y1="601.06" x2="587.16" y2="606.41" gradientUnits="userSpaceOnUse"><stop stop-color="#F8777C"/><stop offset="1" stop-color="#fff"/></linearGradient><linearGradient id="paint4_linear" x1="1046490" y1="-2195050" x2="1047920" y2="-2194900" gradientUnits="userSpaceOnUse"><stop stop-color="#F8777C"/><stop offset="1" stop-color="#fff"/></linearGradient><linearGradient id="paint5_linear" x1="1151390" y1="-1575120" x2="1148820" y2="-1574680" gradientUnits="userSpaceOnUse"><stop stop-color="#0D5A52"/><stop offset="1" stop-color="#fff"/></linearGradient><linearGradient id="paint6_linear" x1="40.04" y1="472.72" x2="191.9" y2="524.1" gradientUnits="userSpaceOnUse"><stop stop-color="#10BB69"/><stop offset="1" stop-color="#fff"/></linearGradient><linearGradient id="paint7_linear" x1="2430070" y1="-7188990" x2="2426410" y2="-7189550" gradientUnits="userSpaceOnUse"><stop stop-color="#27774E"/><stop offset="1" stop-color="#fff"/></linearGradient><linearGradient id="paint8_linear" x1="4081570" y1="-6756620" x2="4065350" y2="-6754090" gradientUnits="userSpaceOnUse"><stop stop-color="#27774E"/><stop offset="1" stop-color="#fff"/></linearGradient><linearGradient id="paint9_linear" x1="55.53" y1="585.93" x2="30.15" y2="595.27" gradientUnits="userSpaceOnUse"><stop stop-color="#456B6A"/><stop offset="1" stop-color="#fff"/></linearGradient><linearGradient id="paint10_linear" x1="2452830" y1="-5027470" x2="2457180" y2="-5027020" gradientUnits="userSpaceOnUse"><stop stop-color="#456B6A"/><stop offset="1" stop-color="#fff"/></linearGradient><linearGradient id="paint11_linear" x1="2653810" y1="-3608210" x2="2646010" y2="-3606870" gradientUnits="userSpaceOnUse"><stop stop-color="#27774E"/><stop offset="1" stop-color="#fff"/></linearGradient><linearGradient id="paint12_linear" x1="915.31" y1="491.01" x2="783.29" y2="535.69" gradientUnits="userSpaceOnUse"><stop stop-color="#83A974"/><stop offset="1" stop-color="#fff"/></linearGradient><linearGradient id="paint13_linear" x1="61694.9" y1="251666" x2="64473.6" y2="251242" gradientUnits="userSpaceOnUse"><stop stop-color="#83A974"/><stop offset="1" stop-color="#fff"/></linearGradient><linearGradient id="paint14_linear" x1="46954.2" y1="236122" x2="59255.4" y2="238043" gradientUnits="userSpaceOnUse"><stop stop-color="#83A974"/><stop offset="1" stop-color="#fff"/></linearGradient><linearGradient id="paint15_linear" x1="930.23" y1="589.44" x2="952.22" y2="597.48" gradientUnits="userSpaceOnUse"><stop stop-color="#2F757B"/><stop offset="1" stop-color="#fff"/></linearGradient><linearGradient id="paint16_linear" x1="-238606" y1="189601" x2="-241879" y2="189941" gradientUnits="userSpaceOnUse"><stop stop-color="#2F757B"/><stop offset="1" stop-color="#fff"/></linearGradient><linearGradient id="paint17_linear" x1="21518" y1="141363" x2="27412.5" y2="142374" gradientUnits="userSpaceOnUse"><stop stop-color="#83A974"/><stop offset="1" stop-color="#fff"/></linearGradient><linearGradient id="paint18_linear" x1="314.91" y1="538.5" x2="216.53" y2="601.06" gradientUnits="userSpaceOnUse"><stop stop-color="#fff"/><stop offset="1" stop-color="#494C7E"/></linearGradient><linearGradient id="paint19_linear" x1="368.91" y1="351.32" x2="398.44" y2="349.76" gradientUnits="userSpaceOnUse"><stop stop-color="#fff"/><stop offset="1" stop-color="#9B9FA2"/></linearGradient><filter id="filter0_ii" x="159.19" y="175.99" width="768.13" height="10.71" filterUnits="userSpaceOnUse" color-interpolation-filters="sRGB"><feFlood flood-opacity="0" result="BackgroundImageFix"/><feBlend in="SourceGraphic" in2="BackgroundImageFix" result="shape"/><feColorMatrix in="SourceAlpha" values="0 0 0 0 0 0 0 0 0 0 0 0 0 0 0 0 0 0 127 0" result="hardAlpha"/><feOffset dx="-1" dy="-1"/><feGaussianBlur stdDeviation="1"/><feComposite in2="hardAlpha" operator="arithmetic" k2="-1" k3="1"/><feColorMatrix values="0 0 0 0 1 0 0 0 0 1 0 0 0 0 1 0 0 0 1 0"/><feBlend in2="shape" result="effect1_innerShadow"/><feColorMatrix in="SourceAlpha" values="0 0 0 0 0 0 0 0 0 0 0 0 0 0 0 0 0 0 127 0" result="hardAlpha"/><feOffset dx="1" dy="1"/><feGaussianBlur stdDeviation="1"/><feComposite in2="hardAlpha" operator="arithmetic" k2="-1" k3="1"/><feColorMatrix values="0 0 0 0 0.227451 0 0 0 0 0.666667 0 0 0 0 0.207843 0 0 0 0.1 0"/><feBlend in2="effect1_innerShadow" result="effect2_innerShadow"/></filter><filter id="filter1_ii" x="714.68" y="-1" width="11.33" height="669.22" filterUnits="userSpaceOnUse" color-interpolation-filters="sRGB"><feFlood flood-opacity="0" result="BackgroundImageFix"/><feBlend in="SourceGraphic" in2="BackgroundImageFix" result="shape"/><feColorMatrix in="SourceAlpha" values="0 0 0 0 0 0 0 0 0 0 0 0 0 0 0 0 0 0 127 0" result="hardAlpha"/><feOffset dx="-1" dy="-1"/><feGaussianBlur stdDeviation="1"/><feComposite in2="hardAlpha" operator="arithmetic" k2="-1" k3="1"/><feColorMatrix values="0 0 0 0 1 0 0 0 0 1 0 0 0 0 1 0 0 0 1 0"/><feBlend in2="shape" result="effect1_innerShadow"/><feColorMatrix in="SourceAlpha" values="0 0 0 0 0 0 0 0 0 0 0 0 0 0 0 0 0 0 127 0" result="hardAlpha"/><feOffset dx="1" dy="1"/><feGaussianBlur stdDeviation="1"/><feComposite in2="hardAlpha" operator="arithmetic" k2="-1" k3="1"/><feColorMatrix values="0 0 0 0 0.227451 0 0 0 0 0.666667 0 0 0 0 0.207843 0 0 0 0.1 0"/><feBlend in2="effect1_innerShadow" result="effect2_innerShadow"/></filter><filter id="filter2_ii" x="343.79" y="-1" width="11.33" height="667.78" filterUnits="userSpaceOnUse" color-interpolation-filters="sRGB"><feFlood flood-opacity="0" result="BackgroundImageFix"/><feBlend in="SourceGraphic" in2="BackgroundImageFix" result="shape"/><feColorMatrix in="SourceAlpha" values="0 0 0 0 0 0 0 0 0 0 0 0 0 0 0 0 0 0 127 0" result="hardAlpha"/><feOffset dx="-1" dy="-1"/><feGaussianBlur stdDeviation="1"/><feComposite in2="hardAlpha" operator="arithmetic" k2="-1" k3="1"/><feColorMatrix values="0 0 0 0 1 0 0 0 0 1 0 0 0 0 1 0 0 0 1 0"/><feBlend in2="shape" result="effect1_innerShadow"/><feColorMatrix in="SourceAlpha" values="0 0 0 0 0 0 0 0 0 0 0 0 0 0 0 0 0 0 127 0" result="hardAlpha"/><feOffset dx="1" dy="1"/><feGaussianBlur stdDeviation="1"/><feComposite in2="hardAlpha" operator="arithmetic" k2="-1" k3="1"/><feColorMatrix values="0 0 0 0 0.227451 0 0 0 0 0.666667 0 0 0 0 0.207843 0 0 0 0.1 0"/><feBlend in2="effect1_innerShadow" result="effect2_innerShadow"/></filter></defs></svg>